<svg xmlns="http://www.w3.org/2000/svg" width="2400" height="1500" viewBox="0 0 2400 1500">
<defs>
  <linearGradient id="wall" x1="0" y1="0" x2="0" y2="1"><stop offset="0" stop-color="#1d1e21"/><stop offset="1" stop-color="#34363b"/></linearGradient>
  <linearGradient id="depth" x1="0" y1="0" x2="0" y2="1"><stop offset="0" stop-color="#ffffff" stop-opacity="0.22"/><stop offset="0.45" stop-color="#ffffff" stop-opacity="0"/><stop offset="1" stop-color="#000000" stop-opacity="0.28"/></linearGradient>
  <radialGradient id="gloss" cx="0.5" cy="0" r="0.75"><stop offset="0" stop-color="#ffffff" stop-opacity="0.35"/><stop offset="0.5" stop-color="#ffffff" stop-opacity="0.08"/><stop offset="1" stop-color="#ffffff" stop-opacity="0"/></radialGradient>
  <linearGradient id="vignette" x1="0" y1="0" x2="1" y2="0"><stop offset="0" stop-color="#000" stop-opacity="0.25"/><stop offset="0.2" stop-color="#000" stop-opacity="0"/><stop offset="0.8" stop-color="#000" stop-opacity="0"/><stop offset="1" stop-color="#000" stop-opacity="0.25"/></linearGradient>
  <clipPath id="floorClip"><rect x="0" y="600" width="2400" height="900"/></clipPath>
  <pattern id="flakes" width="420" height="420" patternUnits="userSpaceOnUse" patternTransform="rotate(13)"><polygon points="-5.0,-4.6 3.2,-4.0 4.5,4.1 -2.8,4.5" fill="#1c2430" transform="translate(100.9 116.0) rotate(27)"/><polygon points="-4.6,-3.5 4.5,-3.7 4.1,2.9 -3.6,4.1" fill="#d9dadb" transform="translate(89.8 330.8) rotate(129)"/><polygon points="-3.9,-2.0 3.1,-3.1 3.5,1.9 -3.3,3.5" fill="#1c2430" transform="translate(280.7 167.7) rotate(264)"/><polygon points="-7.7,-7.6 4.9,-6.2 7.0,4.8 -7.5,7.0" fill="#1c2430" transform="translate(21.0 151.8) rotate(290)"/><polygon points="-7.4,-6.9 7.8,-5.9 6.7,7.1 -6.9,6.7" fill="#9ea1a6" transform="translate(13.4 90.0) rotate(64)"/><polygon points="-6.1,-3.9 6.0,-4.9 5.5,4.1 -3.2,5.5" fill="#d9dadb" transform="translate(64.9 194.1) rotate(205)"/><polygon points="-3.5,-2.7 2.7,-2.8 3.1,3.5 -2.0,3.1" fill="#d9dadb" transform="translate(318.8 57.7) rotate(249)"/><polygon points="-5.8,-5.0 5.2,-4.6 5.2,3.0 -4.8,5.2" fill="#9ea1a6" transform="translate(69.0 16.9) rotate(100)"/><polygon points="-5.1,-4.4 6.1,-4.1 4.6,2.1 -3.4,4.6" fill="#2f3136" transform="translate(81.9 259.8) rotate(54)"/><polygon points="-4.9,-3.8 5.0,-4.0 4.4,4.5 -2.6,4.4" fill="#c7c9cc" transform="translate(154.6 334.8) rotate(115)"/><polygon points="-4.1,-3.0 4.8,-3.3 3.7,3.1 -4.3,3.7" fill="#c7c9cc" transform="translate(271.5 160.3) rotate(139)"/><polygon points="-5.5,-3.6 4.1,-4.4 4.9,3.9 -4.9,4.9" fill="#1c2430" transform="translate(95.8 255.0) rotate(39)"/><polygon points="-7.6,-4.2 8.1,-6.1 6.9,6.3 -7.2,6.9" fill="#4a6a8f" transform="translate(201.0 256.9) rotate(226)"/><polygon points="-5.0,-2.7 3.3,-4.0 4.5,3.8 -5.3,4.5" fill="#2f3136" transform="translate(75.1 182.1) rotate(25)"/><polygon points="-7.7,-6.8 6.5,-6.2 7.0,3.8 -6.9,7.0" fill="#c7c9cc" transform="translate(181.1 161.9) rotate(151)"/><polygon points="-4.0,-3.0 3.4,-3.2 3.6,3.1 -3.4,3.6" fill="#4a6a8f" transform="translate(204.0 157.1) rotate(117)"/><polygon points="-5.7,-4.8 6.0,-4.5 5.1,4.8 -3.7,5.1" fill="#1c2430" transform="translate(110.0 208.5) rotate(230)"/><polygon points="-6.3,-5.3 4.1,-5.0 5.7,5.7 -3.7,5.7" fill="#9ea1a6" transform="translate(35.5 301.2) rotate(199)"/><polygon points="-7.2,-6.6 5.3,-5.7 6.5,4.6 -4.8,6.5" fill="#c7c9cc" transform="translate(305.0 404.9) rotate(34)"/><polygon points="-5.7,-5.4 5.5,-4.6 5.2,2.6 -5.6,5.2" fill="#4a6a8f" transform="translate(416.6 56.5) rotate(54)"/><polygon points="-8.1,-5.7 4.9,-6.5 7.3,4.0 -6.7,7.3" fill="#2f3136" transform="translate(24.0 3.9) rotate(193)"/><polygon points="-4.6,-3.9 4.5,-3.7 4.2,3.2 -2.8,4.2" fill="#2f3136" transform="translate(63.9 85.6) rotate(120)"/><polygon points="-8.0,-6.6 8.8,-6.4 7.2,4.1 -4.1,7.2" fill="#9ea1a6" transform="translate(137.3 289.9) rotate(260)"/><polygon points="-6.1,-5.3 7.0,-4.9 5.5,4.7 -4.4,5.5" fill="#4a6a8f" transform="translate(11.4 274.5) rotate(185)"/><polygon points="-6.7,-6.5 4.2,-5.3 6.0,3.6 -6.1,6.0" fill="#4a6a8f" transform="translate(286.6 323.9) rotate(43)"/><polygon points="-5.0,-5.0 5.9,-4.0 4.5,4.8 -3.8,4.5" fill="#1c2430" transform="translate(375.4 366.4) rotate(8)"/><polygon points="-5.6,-4.1 4.9,-4.5 5.1,4.8 -4.7,5.1" fill="#d9dadb" transform="translate(104.5 135.6) rotate(238)"/><polygon points="-6.4,-3.3 6.0,-5.1 5.7,5.7 -4.1,5.7" fill="#c7c9cc" transform="translate(117.3 261.6) rotate(98)"/><polygon points="-7.9,-4.2 6.0,-6.3 7.1,5.3 -8.6,7.1" fill="#c7c9cc" transform="translate(337.5 31.7) rotate(248)"/><polygon points="-5.9,-5.6 3.9,-4.7 5.3,4.0 -6.5,5.3" fill="#4a6a8f" transform="translate(108.2 157.6) rotate(219)"/><polygon points="-7.8,-7.0 6.6,-6.2 7.0,6.9 -6.7,7.0" fill="#c7c9cc" transform="translate(400.2 100.0) rotate(205)"/><polygon points="-7.3,-4.6 8.0,-5.9 6.6,3.5 -7.7,6.6" fill="#d9dadb" transform="translate(24.4 225.5) rotate(272)"/><polygon points="-6.5,-6.5 7.5,-5.2 5.9,4.5 -5.9,5.9" fill="#c7c9cc" transform="translate(338.0 169.4) rotate(14)"/><polygon points="-4.8,-2.5 3.2,-3.9 4.3,3.0 -4.2,4.3" fill="#2f3136" transform="translate(265.3 377.9) rotate(209)"/><polygon points="-7.5,-4.9 8.0,-6.0 6.8,4.4 -4.8,6.8" fill="#d9dadb" transform="translate(355.2 368.3) rotate(153)"/><polygon points="-4.9,-4.1 5.4,-3.9 4.4,3.9 -5.3,4.4" fill="#1c2430" transform="translate(23.4 79.2) rotate(147)"/><polygon points="-4.2,-2.1 3.6,-3.4 3.8,3.2 -2.3,3.8" fill="#2f3136" transform="translate(77.7 128.8) rotate(251)"/><polygon points="-5.2,-4.7 3.2,-4.2 4.7,4.3 -5.4,4.7" fill="#1c2430" transform="translate(416.9 200.1) rotate(301)"/><polygon points="-5.6,-4.2 4.4,-4.4 5.0,4.4 -3.5,5.0" fill="#9ea1a6" transform="translate(157.9 199.4) rotate(99)"/><polygon points="-5.4,-3.5 3.5,-4.3 4.9,4.7 -3.4,4.9" fill="#c7c9cc" transform="translate(177.6 311.7) rotate(245)"/><polygon points="-7.9,-5.1 8.3,-6.3 7.1,7.4 -4.1,7.1" fill="#1c2430" transform="translate(393.5 231.0) rotate(316)"/><polygon points="-5.8,-4.5 4.6,-4.6 5.2,4.5 -5.5,5.2" fill="#c7c9cc" transform="translate(251.1 337.7) rotate(193)"/><polygon points="-7.2,-6.5 7.7,-5.8 6.5,4.6 -3.6,6.5" fill="#4a6a8f" transform="translate(129.4 247.0) rotate(281)"/><polygon points="-5.6,-4.3 6.2,-4.5 5.1,3.1 -3.7,5.1" fill="#2f3136" transform="translate(72.8 244.7) rotate(152)"/><polygon points="-7.6,-5.3 8.3,-6.1 6.8,4.7 -8.2,6.8" fill="#d9dadb" transform="translate(256.2 274.4) rotate(340)"/><polygon points="-6.1,-6.1 4.9,-4.9 5.5,3.8 -4.9,5.5" fill="#9ea1a6" transform="translate(360.1 388.5) rotate(138)"/><polygon points="-4.8,-2.4 4.0,-3.8 4.3,2.5 -4.9,4.3" fill="#1c2430" transform="translate(0.2 78.3) rotate(13)"/><polygon points="-8.1,-5.7 8.0,-6.5 7.3,5.7 -5.8,7.3" fill="#9ea1a6" transform="translate(76.6 167.7) rotate(143)"/><polygon points="-6.0,-3.4 5.5,-4.8 5.4,2.7 -3.5,5.4" fill="#4a6a8f" transform="translate(5.1 93.2) rotate(142)"/><polygon points="-3.5,-3.0 3.1,-2.8 3.2,2.7 -3.6,3.2" fill="#4a6a8f" transform="translate(115.9 137.7) rotate(14)"/><polygon points="-7.8,-6.7 5.9,-6.3 7.1,7.4 -8.0,7.1" fill="#c7c9cc" transform="translate(322.5 134.9) rotate(79)"/><polygon points="-6.5,-5.8 5.4,-5.2 5.8,5.2 -3.8,5.8" fill="#4a6a8f" transform="translate(124.6 84.2) rotate(273)"/><polygon points="-5.5,-4.1 5.6,-4.4 4.9,3.2 -4.1,4.9" fill="#d9dadb" transform="translate(315.3 298.3) rotate(218)"/><polygon points="-7.9,-7.4 8.5,-6.3 7.1,5.6 -8.4,7.1" fill="#d9dadb" transform="translate(255.5 127.3) rotate(210)"/><polygon points="-3.5,-2.8 3.1,-2.8 3.2,1.5 -2.7,3.2" fill="#d9dadb" transform="translate(274.6 269.4) rotate(9)"/><polygon points="-5.0,-2.7 5.9,-4.0 4.5,4.9 -5.3,4.5" fill="#c7c9cc" transform="translate(134.2 91.8) rotate(190)"/><polygon points="-7.3,-4.0 5.2,-5.8 6.5,5.4 -7.5,6.5" fill="#d9dadb" transform="translate(28.8 211.9) rotate(329)"/><polygon points="-7.7,-7.5 5.0,-6.1 6.9,7.1 -5.9,6.9" fill="#2f3136" transform="translate(259.0 266.0) rotate(102)"/><polygon points="-4.6,-2.6 4.4,-3.7 4.2,3.7 -3.4,4.2" fill="#c7c9cc" transform="translate(80.9 112.6) rotate(352)"/><polygon points="-6.5,-3.3 5.9,-5.2 5.9,5.2 -7.1,5.9" fill="#c7c9cc" transform="translate(372.9 379.7) rotate(150)"/><polygon points="-4.5,-2.8 3.9,-3.6 4.0,4.2 -3.2,4.0" fill="#c7c9cc" transform="translate(284.5 196.9) rotate(259)"/><polygon points="-3.8,-3.0 4.1,-3.1 3.4,3.8 -3.2,3.4" fill="#c7c9cc" transform="translate(29.9 396.6) rotate(30)"/><polygon points="-7.0,-6.4 6.7,-5.6 6.3,6.6 -3.9,6.3" fill="#9ea1a6" transform="translate(415.2 334.2) rotate(19)"/><polygon points="-4.7,-4.6 5.7,-3.8 4.3,4.5 -3.2,4.3" fill="#c7c9cc" transform="translate(212.7 195.8) rotate(214)"/><polygon points="-5.9,-3.7 6.4,-4.7 5.3,5.3 -3.7,5.3" fill="#c7c9cc" transform="translate(226.6 143.6) rotate(253)"/><polygon points="-7.9,-5.1 8.6,-6.3 7.1,5.4 -5.8,7.1" fill="#1c2430" transform="translate(371.3 124.0) rotate(186)"/><polygon points="-5.7,-4.0 6.1,-4.5 5.1,3.5 -3.7,5.1" fill="#4a6a8f" transform="translate(80.4 182.4) rotate(77)"/><polygon points="-7.4,-6.2 5.0,-5.9 6.6,7.4 -4.3,6.6" fill="#1c2430" transform="translate(107.2 275.9) rotate(73)"/><polygon points="-6.9,-4.5 6.1,-5.5 6.2,5.7 -4.3,6.2" fill="#c7c9cc" transform="translate(338.4 264.6) rotate(126)"/><polygon points="-3.8,-3.3 2.4,-3.0 3.4,3.4 -3.0,3.4" fill="#1c2430" transform="translate(217.9 351.1) rotate(8)"/><polygon points="-6.2,-6.1 6.0,-4.9 5.6,2.9 -5.9,5.6" fill="#4a6a8f" transform="translate(81.6 235.3) rotate(281)"/><polygon points="-7.7,-4.6 7.5,-6.2 7.0,3.7 -7.7,7.0" fill="#1c2430" transform="translate(392.7 318.3) rotate(250)"/><polygon points="-5.8,-4.5 4.6,-4.7 5.3,2.7 -4.6,5.3" fill="#1c2430" transform="translate(149.9 369.9) rotate(138)"/><polygon points="-7.3,-6.4 8.2,-5.9 6.6,5.9 -5.0,6.6" fill="#2f3136" transform="translate(26.7 256.0) rotate(306)"/><polygon points="-3.7,-2.6 4.2,-2.9 3.3,1.9 -2.6,3.3" fill="#1c2430" transform="translate(56.5 79.0) rotate(274)"/><polygon points="-7.7,-5.6 8.8,-6.1 6.9,3.9 -6.1,6.9" fill="#d9dadb" transform="translate(279.9 407.6) rotate(124)"/><polygon points="-7.6,-7.0 4.9,-6.1 6.9,6.4 -7.1,6.9" fill="#4a6a8f" transform="translate(275.9 202.8) rotate(278)"/><polygon points="-4.3,-2.8 3.4,-3.4 3.8,3.7 -3.7,3.8" fill="#9ea1a6" transform="translate(256.4 348.6) rotate(360)"/><polygon points="-8.0,-4.5 5.0,-6.4 7.2,6.4 -8.1,7.2" fill="#4a6a8f" transform="translate(10.0 55.3) rotate(186)"/><polygon points="-5.1,-3.5 5.9,-4.1 4.6,3.5 -4.4,4.6" fill="#c7c9cc" transform="translate(88.1 277.6) rotate(178)"/><polygon points="-5.2,-3.1 3.9,-4.1 4.7,3.7 -5.0,4.7" fill="#4a6a8f" transform="translate(364.4 159.9) rotate(153)"/><polygon points="-3.9,-3.6 3.7,-3.2 3.5,2.9 -3.5,3.5" fill="#d9dadb" transform="translate(349.5 88.3) rotate(329)"/><polygon points="-4.5,-3.3 4.0,-3.6 4.1,4.1 -4.6,4.1" fill="#9ea1a6" transform="translate(245.8 365.7) rotate(161)"/><polygon points="-4.6,-3.3 3.6,-3.7 4.2,3.5 -3.3,4.2" fill="#4a6a8f" transform="translate(218.3 69.6) rotate(134)"/><polygon points="-7.4,-5.6 4.9,-5.9 6.6,5.2 -4.1,6.6" fill="#d9dadb" transform="translate(180.5 144.3) rotate(271)"/><polygon points="-6.8,-5.9 6.2,-5.5 6.2,4.4 -4.0,6.2" fill="#4a6a8f" transform="translate(375.2 71.5) rotate(313)"/><polygon points="-6.7,-6.2 6.5,-5.4 6.0,6.3 -5.7,6.0" fill="#2f3136" transform="translate(54.6 161.3) rotate(196)"/><polygon points="-4.8,-3.3 5.4,-3.8 4.3,3.5 -4.8,4.3" fill="#1c2430" transform="translate(126.7 46.5) rotate(193)"/><polygon points="-6.4,-4.7 5.8,-5.1 5.8,3.2 -6.8,5.8" fill="#d9dadb" transform="translate(236.1 286.9) rotate(247)"/><polygon points="-5.1,-3.1 3.5,-4.1 4.6,2.9 -3.7,4.6" fill="#2f3136" transform="translate(38.7 1.2) rotate(102)"/><polygon points="-7.0,-5.9 6.4,-5.6 6.3,3.7 -7.4,6.3" fill="#4a6a8f" transform="translate(18.2 198.1) rotate(349)"/><polygon points="-3.5,-3.5 2.7,-2.8 3.2,3.1 -2.1,3.2" fill="#1c2430" transform="translate(244.7 186.3) rotate(120)"/><polygon points="-7.8,-6.1 5.9,-6.3 7.0,5.9 -6.6,7.0" fill="#d9dadb" transform="translate(161.6 233.7) rotate(312)"/><polygon points="-8.0,-5.1 5.9,-6.4 7.2,4.0 -7.1,7.2" fill="#1c2430" transform="translate(364.4 137.8) rotate(125)"/><polygon points="-7.9,-6.4 7.1,-6.3 7.1,5.7 -5.4,7.1" fill="#9ea1a6" transform="translate(301.3 136.3) rotate(19)"/><polygon points="-7.4,-3.8 6.7,-5.9 6.6,3.6 -5.5,6.6" fill="#1c2430" transform="translate(238.2 268.3) rotate(309)"/><polygon points="-4.1,-3.6 3.2,-3.3 3.7,2.0 -2.8,3.7" fill="#c7c9cc" transform="translate(258.3 103.3) rotate(12)"/><polygon points="-4.5,-3.3 3.4,-3.6 4.1,2.8 -4.7,4.1" fill="#c7c9cc" transform="translate(28.1 171.2) rotate(272)"/><polygon points="-5.5,-3.2 6.0,-4.4 4.9,4.4 -4.2,4.9" fill="#4a6a8f" transform="translate(0.8 152.7) rotate(120)"/><polygon points="-5.7,-4.8 5.4,-4.6 5.1,3.2 -4.1,5.1" fill="#c7c9cc" transform="translate(121.3 323.6) rotate(120)"/><polygon points="-3.8,-3.6 3.4,-3.0 3.4,3.7 -4.1,3.4" fill="#4a6a8f" transform="translate(18.1 25.0) rotate(326)"/><polygon points="-3.8,-2.3 2.5,-3.1 3.4,1.9 -4.0,3.4" fill="#2f3136" transform="translate(257.3 65.3) rotate(150)"/><polygon points="-7.7,-4.8 7.0,-6.2 7.0,6.0 -5.5,7.0" fill="#4a6a8f" transform="translate(211.9 256.2) rotate(209)"/><polygon points="-4.0,-2.8 4.3,-3.2 3.6,3.4 -3.3,3.6" fill="#c7c9cc" transform="translate(347.3 174.1) rotate(332)"/><polygon points="-7.8,-6.2 7.9,-6.3 7.0,7.5 -6.3,7.0" fill="#1c2430" transform="translate(100.4 309.9) rotate(5)"/><polygon points="-7.5,-4.8 8.8,-6.0 6.8,5.6 -4.2,6.8" fill="#2f3136" transform="translate(402.6 384.9) rotate(147)"/><polygon points="-6.2,-4.3 4.6,-5.0 5.6,5.1 -4.1,5.6" fill="#4a6a8f" transform="translate(133.2 43.0) rotate(307)"/><polygon points="-3.9,-3.9 3.9,-3.1 3.5,2.5 -2.8,3.5" fill="#9ea1a6" transform="translate(42.4 241.9) rotate(127)"/><polygon points="-5.5,-3.0 6.5,-4.4 4.9,3.9 -5.9,4.9" fill="#1c2430" transform="translate(81.6 214.7) rotate(116)"/><polygon points="-4.2,-3.1 4.2,-3.4 3.8,3.8 -2.3,3.8" fill="#d9dadb" transform="translate(410.6 145.1) rotate(205)"/><polygon points="-5.2,-4.2 3.2,-4.1 4.6,4.4 -2.8,4.6" fill="#9ea1a6" transform="translate(419.5 54.2) rotate(27)"/><polygon points="-5.4,-3.5 6.2,-4.3 4.9,3.8 -4.1,4.9" fill="#9ea1a6" transform="translate(214.2 41.4) rotate(313)"/><polygon points="-3.6,-2.3 2.5,-2.9 3.2,2.4 -3.9,3.2" fill="#4a6a8f" transform="translate(357.2 83.0) rotate(211)"/><polygon points="-3.7,-2.1 2.7,-2.9 3.3,3.0 -2.5,3.3" fill="#2f3136" transform="translate(71.1 403.9) rotate(178)"/><polygon points="-4.2,-3.2 4.9,-3.4 3.8,2.6 -4.0,3.8" fill="#9ea1a6" transform="translate(373.4 120.9) rotate(257)"/><polygon points="-4.6,-3.2 3.0,-3.7 4.2,3.6 -3.5,4.2" fill="#c7c9cc" transform="translate(392.2 109.7) rotate(149)"/><polygon points="-4.7,-4.5 5.6,-3.7 4.2,3.6 -3.1,4.2" fill="#c7c9cc" transform="translate(302.3 411.4) rotate(271)"/><polygon points="-4.8,-4.0 4.5,-3.8 4.3,3.2 -3.7,4.3" fill="#4a6a8f" transform="translate(139.4 87.8) rotate(302)"/><polygon points="-3.7,-2.5 3.8,-3.0 3.3,3.5 -2.6,3.3" fill="#4a6a8f" transform="translate(35.7 269.8) rotate(170)"/><polygon points="-6.7,-4.1 5.7,-5.4 6.1,4.1 -4.4,6.1" fill="#2f3136" transform="translate(360.1 213.4) rotate(21)"/><polygon points="-4.1,-3.2 4.5,-3.3 3.7,2.9 -2.1,3.7" fill="#9ea1a6" transform="translate(20.3 316.8) rotate(332)"/><polygon points="-6.6,-3.6 4.9,-5.2 5.9,3.9 -4.8,5.9" fill="#1c2430" transform="translate(35.3 41.3) rotate(50)"/><polygon points="-7.3,-7.3 5.0,-5.9 6.6,3.9 -5.6,6.6" fill="#2f3136" transform="translate(275.6 204.7) rotate(40)"/><polygon points="-5.2,-4.7 4.1,-4.1 4.6,3.3 -5.3,4.6" fill="#2f3136" transform="translate(269.0 219.7) rotate(13)"/><polygon points="-4.9,-3.3 4.5,-4.0 4.4,3.9 -4.1,4.4" fill="#9ea1a6" transform="translate(95.6 81.6) rotate(214)"/><polygon points="-6.6,-3.4 6.1,-5.3 5.9,3.4 -7.0,5.9" fill="#d9dadb" transform="translate(370.2 320.2) rotate(235)"/><polygon points="-7.4,-5.7 5.3,-5.9 6.7,3.1 -4.4,6.7" fill="#1c2430" transform="translate(389.0 205.6) rotate(308)"/><polygon points="-8.0,-4.4 7.1,-6.4 7.2,6.0 -7.2,7.2" fill="#4a6a8f" transform="translate(80.0 40.4) rotate(343)"/><polygon points="-3.7,-2.6 3.7,-3.0 3.3,2.3 -2.4,3.3" fill="#c7c9cc" transform="translate(170.2 382.5) rotate(99)"/><polygon points="-3.5,-3.1 2.2,-2.8 3.2,3.5 -1.8,3.2" fill="#d9dadb" transform="translate(174.9 209.2) rotate(303)"/><polygon points="-6.6,-6.3 7.8,-5.3 6.0,5.5 -4.9,6.0" fill="#4a6a8f" transform="translate(378.9 93.4) rotate(333)"/><polygon points="-6.4,-5.4 5.8,-5.2 5.8,5.4 -3.5,5.8" fill="#d9dadb" transform="translate(235.8 204.8) rotate(4)"/><polygon points="-5.2,-2.6 6.2,-4.1 4.7,4.6 -3.4,4.7" fill="#4a6a8f" transform="translate(209.7 151.6) rotate(233)"/><polygon points="-7.5,-5.3 8.6,-6.0 6.8,5.0 -8.2,6.8" fill="#9ea1a6" transform="translate(228.3 53.7) rotate(184)"/><polygon points="-6.4,-4.4 5.0,-5.1 5.7,5.7 -5.6,5.7" fill="#4a6a8f" transform="translate(73.6 149.3) rotate(66)"/><polygon points="-7.8,-5.3 5.2,-6.3 7.0,6.6 -8.5,7.0" fill="#9ea1a6" transform="translate(100.9 101.7) rotate(106)"/><polygon points="-7.4,-3.7 4.6,-5.9 6.7,6.2 -4.4,6.7" fill="#d9dadb" transform="translate(29.5 163.3) rotate(319)"/><polygon points="-5.6,-2.9 5.7,-4.5 5.1,4.2 -5.0,5.1" fill="#4a6a8f" transform="translate(49.2 317.3) rotate(288)"/><polygon points="-3.4,-2.9 3.9,-2.7 3.1,1.9 -2.4,3.1" fill="#2f3136" transform="translate(367.4 7.6) rotate(352)"/><polygon points="-5.3,-4.5 4.4,-4.3 4.8,4.5 -4.6,4.8" fill="#1c2430" transform="translate(57.2 276.0) rotate(177)"/><polygon points="-4.0,-3.1 3.0,-3.2 3.6,3.3 -2.3,3.6" fill="#d9dadb" transform="translate(314.9 226.3) rotate(296)"/><polygon points="-3.6,-3.1 3.7,-2.9 3.3,2.5 -4.0,3.3" fill="#2f3136" transform="translate(163.0 103.3) rotate(160)"/><polygon points="-4.4,-3.0 3.8,-3.6 4.0,3.1 -3.6,4.0" fill="#d9dadb" transform="translate(210.5 42.5) rotate(206)"/><polygon points="-5.6,-3.0 5.8,-4.5 5.1,4.5 -6.0,5.1" fill="#4a6a8f" transform="translate(227.5 149.4) rotate(212)"/><polygon points="-3.4,-2.6 4.0,-2.7 3.0,2.8 -1.9,3.0" fill="#1c2430" transform="translate(78.0 225.9) rotate(359)"/><polygon points="-7.3,-6.1 5.4,-5.9 6.6,4.7 -4.4,6.6" fill="#4a6a8f" transform="translate(354.6 3.0) rotate(19)"/><polygon points="-6.5,-5.4 5.1,-5.2 5.9,5.8 -6.1,5.9" fill="#1c2430" transform="translate(301.4 215.5) rotate(306)"/><polygon points="-3.3,-2.5 2.2,-2.7 3.0,3.3 -2.9,3.0" fill="#d9dadb" transform="translate(242.2 281.9) rotate(142)"/><polygon points="-5.4,-3.6 6.5,-4.4 4.9,2.9 -4.4,4.9" fill="#4a6a8f" transform="translate(293.9 243.3) rotate(326)"/><polygon points="-5.1,-3.5 3.2,-4.0 4.5,3.1 -4.0,4.5" fill="#d9dadb" transform="translate(268.3 378.6) rotate(117)"/><polygon points="-7.9,-7.1 6.4,-6.3 7.1,6.8 -7.3,7.1" fill="#1c2430" transform="translate(179.4 275.4) rotate(48)"/><polygon points="-5.6,-3.9 4.5,-4.5 5.0,2.3 -5.5,5.0" fill="#4a6a8f" transform="translate(372.3 332.9) rotate(337)"/><polygon points="-4.3,-3.2 2.9,-3.4 3.8,2.5 -3.8,3.8" fill="#2f3136" transform="translate(48.6 128.5) rotate(314)"/><polygon points="-3.6,-2.6 2.2,-2.9 3.3,3.4 -3.7,3.3" fill="#1c2430" transform="translate(418.6 153.1) rotate(152)"/><polygon points="-4.9,-4.4 3.8,-3.9 4.4,2.2 -3.8,4.4" fill="#4a6a8f" transform="translate(300.0 266.5) rotate(95)"/><polygon points="-4.1,-2.5 3.1,-3.3 3.7,2.9 -2.1,3.7" fill="#1c2430" transform="translate(253.4 368.7) rotate(40)"/><polygon points="-7.3,-5.4 6.2,-5.8 6.6,5.0 -6.8,6.6" fill="#1c2430" transform="translate(193.3 263.9) rotate(141)"/><polygon points="-4.4,-3.9 4.5,-3.5 3.9,2.4 -3.8,3.9" fill="#2f3136" transform="translate(99.8 25.7) rotate(345)"/><polygon points="-8.0,-5.0 6.1,-6.4 7.2,6.5 -4.9,7.2" fill="#2f3136" transform="translate(201.5 408.2) rotate(140)"/><polygon points="-4.6,-4.2 3.9,-3.7 4.2,2.1 -3.5,4.2" fill="#9ea1a6" transform="translate(353.8 245.0) rotate(43)"/><polygon points="-3.9,-2.4 3.7,-3.1 3.5,3.5 -2.3,3.5" fill="#2f3136" transform="translate(204.4 324.2) rotate(332)"/><polygon points="-7.8,-6.1 8.0,-6.2 7.0,5.1 -4.3,7.0" fill="#c7c9cc" transform="translate(130.2 275.6) rotate(98)"/><polygon points="-6.2,-4.7 3.8,-5.0 5.6,3.0 -5.2,5.6" fill="#1c2430" transform="translate(354.8 350.4) rotate(2)"/><polygon points="-3.8,-3.3 4.1,-3.0 3.4,3.6 -3.8,3.4" fill="#1c2430" transform="translate(102.6 301.8) rotate(191)"/><polygon points="-4.9,-2.6 3.6,-3.9 4.4,3.5 -5.2,4.4" fill="#1c2430" transform="translate(96.5 80.2) rotate(136)"/><polygon points="-7.5,-3.9 6.2,-6.0 6.7,7.0 -6.2,6.7" fill="#c7c9cc" transform="translate(408.1 220.2) rotate(359)"/><polygon points="-6.4,-3.8 4.7,-5.1 5.7,5.5 -4.7,5.7" fill="#1c2430" transform="translate(274.5 18.4) rotate(86)"/><polygon points="-7.0,-6.8 4.2,-5.6 6.3,6.0 -5.2,6.3" fill="#d9dadb" transform="translate(139.6 408.9) rotate(23)"/><polygon points="-7.0,-6.0 6.8,-5.6 6.3,6.4 -6.6,6.3" fill="#9ea1a6" transform="translate(17.0 101.7) rotate(319)"/><polygon points="-6.9,-4.9 7.1,-5.5 6.2,5.7 -6.0,6.2" fill="#9ea1a6" transform="translate(5.9 204.0) rotate(27)"/><polygon points="-7.5,-5.4 5.6,-6.0 6.8,6.9 -6.6,6.8" fill="#d9dadb" transform="translate(275.1 162.6) rotate(158)"/><polygon points="-8.1,-7.2 7.1,-6.5 7.3,7.7 -7.8,7.3" fill="#4a6a8f" transform="translate(292.9 388.9) rotate(139)"/><polygon points="-6.4,-4.0 7.5,-5.1 5.8,4.5 -3.5,5.8" fill="#d9dadb" transform="translate(338.1 318.2) rotate(185)"/><polygon points="-7.5,-3.8 6.4,-6.0 6.7,5.7 -3.8,6.7" fill="#c7c9cc" transform="translate(68.4 371.7) rotate(247)"/><polygon points="-5.3,-3.4 5.6,-4.2 4.8,4.8 -5.1,4.8" fill="#d9dadb" transform="translate(77.8 414.3) rotate(181)"/><polygon points="-7.9,-5.6 8.3,-6.3 7.1,3.5 -5.3,7.1" fill="#2f3136" transform="translate(116.8 327.0) rotate(202)"/><polygon points="-3.4,-1.9 4.0,-2.7 3.1,3.1 -2.3,3.1" fill="#1c2430" transform="translate(126.8 381.3) rotate(16)"/><polygon points="-4.1,-3.0 3.5,-3.3 3.7,1.8 -2.6,3.7" fill="#9ea1a6" transform="translate(232.8 252.3) rotate(293)"/><polygon points="-3.6,-2.3 2.3,-2.9 3.2,2.8 -3.9,3.2" fill="#4a6a8f" transform="translate(184.0 316.0) rotate(207)"/><polygon points="-4.2,-3.6 3.4,-3.3 3.7,1.8 -3.2,3.7" fill="#2f3136" transform="translate(106.0 223.8) rotate(322)"/><polygon points="-6.1,-4.3 5.8,-4.9 5.5,5.2 -4.4,5.5" fill="#d9dadb" transform="translate(378.6 417.8) rotate(6)"/><polygon points="-6.3,-6.3 5.0,-5.1 5.7,3.9 -5.9,5.7" fill="#1c2430" transform="translate(386.3 339.4) rotate(137)"/><polygon points="-7.3,-5.9 8.6,-5.8 6.6,4.7 -6.6,6.6" fill="#1c2430" transform="translate(269.6 75.0) rotate(0)"/><polygon points="-3.9,-2.5 3.0,-3.1 3.5,3.4 -3.7,3.5" fill="#4a6a8f" transform="translate(127.5 230.5) rotate(122)"/><polygon points="-5.4,-4.0 4.5,-4.3 4.8,2.5 -3.9,4.8" fill="#4a6a8f" transform="translate(23.5 28.1) rotate(197)"/><polygon points="-3.4,-2.8 3.2,-2.7 3.1,2.5 -2.2,3.1" fill="#2f3136" transform="translate(367.6 241.2) rotate(57)"/><polygon points="-3.5,-3.4 2.6,-2.8 3.1,3.1 -3.6,3.1" fill="#4a6a8f" transform="translate(306.2 419.4) rotate(246)"/><polygon points="-7.0,-5.7 7.7,-5.6 6.3,7.0 -4.5,6.3" fill="#d9dadb" transform="translate(117.1 292.2) rotate(260)"/><polygon points="-7.5,-5.9 6.2,-6.0 6.8,5.9 -7.8,6.8" fill="#1c2430" transform="translate(121.8 208.2) rotate(274)"/><polygon points="-4.0,-2.4 3.5,-3.2 3.6,2.7 -2.4,3.6" fill="#9ea1a6" transform="translate(400.0 259.1) rotate(330)"/><polygon points="-3.7,-3.3 3.8,-3.0 3.3,2.9 -3.0,3.3" fill="#4a6a8f" transform="translate(134.9 196.5) rotate(80)"/><polygon points="-5.8,-4.8 4.3,-4.6 5.2,4.3 -3.3,5.2" fill="#1c2430" transform="translate(211.8 230.2) rotate(152)"/><polygon points="-5.6,-5.4 4.8,-4.4 5.0,4.0 -5.1,5.0" fill="#c7c9cc" transform="translate(268.4 380.5) rotate(270)"/><polygon points="-4.7,-2.9 5.2,-3.7 4.2,2.0 -3.1,4.2" fill="#c7c9cc" transform="translate(111.2 335.7) rotate(179)"/><polygon points="-3.5,-2.3 3.2,-2.8 3.1,2.9 -2.1,3.1" fill="#d9dadb" transform="translate(46.4 121.0) rotate(177)"/><polygon points="-3.3,-2.2 2.3,-2.6 3.0,2.7 -3.0,3.0" fill="#2f3136" transform="translate(115.1 137.5) rotate(97)"/><polygon points="-4.4,-3.5 3.5,-3.5 4.0,2.0 -4.1,4.0" fill="#c7c9cc" transform="translate(312.0 40.3) rotate(151)"/><polygon points="-6.0,-3.2 6.6,-4.8 5.4,3.1 -4.0,5.4" fill="#2f3136" transform="translate(398.2 81.6) rotate(279)"/><polygon points="-5.9,-3.7 5.3,-4.7 5.3,5.5 -4.5,5.3" fill="#2f3136" transform="translate(405.1 184.0) rotate(195)"/><polygon points="-6.8,-5.2 7.5,-5.5 6.1,3.1 -5.5,6.1" fill="#d9dadb" transform="translate(116.1 228.9) rotate(294)"/><polygon points="-3.4,-3.4 3.4,-2.7 3.1,2.7 -3.1,3.1" fill="#9ea1a6" transform="translate(18.1 355.6) rotate(235)"/><polygon points="-3.5,-2.4 2.6,-2.8 3.2,2.7 -3.5,3.2" fill="#d9dadb" transform="translate(321.0 333.6) rotate(264)"/><polygon points="-6.8,-5.5 6.9,-5.4 6.1,3.2 -4.6,6.1" fill="#2f3136" transform="translate(139.8 179.5) rotate(339)"/><polygon points="-7.8,-5.0 6.8,-6.2 7.0,5.3 -4.5,7.0" fill="#4a6a8f" transform="translate(409.4 229.7) rotate(88)"/><polygon points="-6.8,-5.8 6.0,-5.4 6.1,4.7 -4.0,6.1" fill="#1c2430" transform="translate(333.3 314.7) rotate(236)"/><polygon points="-3.9,-2.6 4.2,-3.1 3.5,1.7 -2.1,3.5" fill="#c7c9cc" transform="translate(215.3 81.4) rotate(18)"/><polygon points="-3.4,-3.2 2.1,-2.7 3.1,2.6 -3.7,3.1" fill="#4a6a8f" transform="translate(328.8 310.6) rotate(3)"/><polygon points="-5.3,-3.1 6.1,-4.3 4.8,5.2 -4.6,4.8" fill="#c7c9cc" transform="translate(87.7 175.0) rotate(184)"/><polygon points="-4.2,-3.9 2.6,-3.3 3.7,3.4 -3.1,3.7" fill="#c7c9cc" transform="translate(348.8 190.6) rotate(137)"/><polygon points="-5.9,-5.0 5.8,-4.7 5.3,3.6 -3.7,5.3" fill="#2f3136" transform="translate(57.8 346.0) rotate(341)"/><polygon points="-4.2,-2.7 3.2,-3.4 3.8,2.7 -3.1,3.8" fill="#1c2430" transform="translate(313.0 200.8) rotate(178)"/><polygon points="-7.7,-5.3 7.2,-6.1 6.9,6.3 -7.2,6.9" fill="#2f3136" transform="translate(222.8 393.5) rotate(207)"/><polygon points="-5.9,-5.9 3.6,-4.8 5.3,3.3 -4.3,5.3" fill="#d9dadb" transform="translate(130.2 406.5) rotate(148)"/><polygon points="-7.4,-7.0 8.8,-5.9 6.6,3.4 -6.0,6.6" fill="#4a6a8f" transform="translate(281.8 238.1) rotate(90)"/><polygon points="-7.7,-7.7 9.2,-6.2 6.9,4.0 -5.6,6.9" fill="#4a6a8f" transform="translate(333.3 202.5) rotate(247)"/><polygon points="-7.2,-6.5 7.5,-5.8 6.5,4.9 -7.0,6.5" fill="#d9dadb" transform="translate(16.8 236.9) rotate(276)"/><polygon points="-4.9,-3.5 5.0,-3.9 4.4,3.5 -2.5,4.4" fill="#1c2430" transform="translate(362.8 380.6) rotate(264)"/><polygon points="-4.7,-4.3 4.6,-3.8 4.2,3.7 -2.9,4.2" fill="#2f3136" transform="translate(170.1 348.3) rotate(296)"/><polygon points="-6.7,-4.1 5.2,-5.4 6.1,3.2 -6.8,6.1" fill="#1c2430" transform="translate(16.7 180.6) rotate(4)"/><polygon points="-5.7,-2.9 6.5,-4.5 5.1,4.1 -6.2,5.1" fill="#d9dadb" transform="translate(311.1 259.5) rotate(222)"/><polygon points="-3.5,-3.0 2.6,-2.8 3.1,1.6 -2.6,3.1" fill="#1c2430" transform="translate(368.8 346.0) rotate(78)"/><polygon points="-5.6,-5.3 4.3,-4.5 5.0,5.4 -4.6,5.0" fill="#4a6a8f" transform="translate(391.3 168.0) rotate(323)"/><polygon points="-3.8,-2.4 2.4,-3.0 3.4,3.7 -3.9,3.4" fill="#9ea1a6" transform="translate(197.9 289.5) rotate(203)"/><polygon points="-6.3,-3.4 4.6,-5.0 5.6,2.5 -3.4,5.6" fill="#9ea1a6" transform="translate(283.0 59.3) rotate(271)"/><polygon points="-6.3,-3.9 4.5,-5.1 5.7,5.8 -4.6,5.7" fill="#1c2430" transform="translate(355.3 12.3) rotate(285)"/><polygon points="-4.4,-2.7 2.8,-3.5 4.0,2.6 -3.0,4.0" fill="#c7c9cc" transform="translate(394.7 282.8) rotate(330)"/><polygon points="-4.6,-3.0 4.9,-3.7 4.2,2.8 -3.4,4.2" fill="#9ea1a6" transform="translate(129.5 394.1) rotate(68)"/><polygon points="-7.7,-7.5 8.1,-6.1 6.9,4.6 -6.8,6.9" fill="#1c2430" transform="translate(148.3 55.1) rotate(243)"/><polygon points="-7.9,-4.8 5.8,-6.3 7.1,4.4 -5.9,7.1" fill="#c7c9cc" transform="translate(420.0 215.9) rotate(215)"/><polygon points="-5.5,-5.0 5.5,-4.4 5.0,3.7 -5.1,5.0" fill="#4a6a8f" transform="translate(384.0 27.2) rotate(340)"/><polygon points="-6.4,-6.1 4.6,-5.1 5.7,2.6 -5.8,5.7" fill="#9ea1a6" transform="translate(298.7 342.8) rotate(7)"/><polygon points="-6.1,-5.6 6.4,-4.9 5.5,4.4 -5.0,5.5" fill="#4a6a8f" transform="translate(109.4 40.2) rotate(170)"/><polygon points="-6.9,-5.3 6.8,-5.5 6.2,5.1 -6.1,6.2" fill="#4a6a8f" transform="translate(283.2 374.6) rotate(219)"/><polygon points="-3.4,-2.5 3.7,-2.7 3.1,2.7 -2.1,3.1" fill="#d9dadb" transform="translate(52.1 292.5) rotate(263)"/><polygon points="-8.1,-5.7 5.1,-6.5 7.3,4.8 -4.4,7.3" fill="#9ea1a6" transform="translate(173.1 51.5) rotate(207)"/><polygon points="-4.2,-3.9 2.8,-3.4 3.8,3.5 -4.0,3.8" fill="#d9dadb" transform="translate(178.3 57.8) rotate(305)"/><polygon points="-4.3,-2.8 4.0,-3.4 3.8,2.7 -2.5,3.8" fill="#1c2430" transform="translate(43.3 204.5) rotate(189)"/><polygon points="-7.7,-4.9 6.3,-6.2 6.9,5.9 -6.3,6.9" fill="#2f3136" transform="translate(226.5 286.3) rotate(1)"/><polygon points="-4.9,-4.0 5.1,-3.9 4.4,3.8 -5.1,4.4" fill="#c7c9cc" transform="translate(43.7 138.7) rotate(313)"/><polygon points="-6.3,-3.3 5.2,-5.0 5.7,4.7 -3.3,5.7" fill="#d9dadb" transform="translate(142.4 9.4) rotate(360)"/><polygon points="-7.6,-6.7 7.6,-6.1 6.9,6.4 -8.3,6.9" fill="#1c2430" transform="translate(254.5 404.5) rotate(332)"/><polygon points="-4.5,-3.8 4.6,-3.6 4.1,2.2 -3.1,4.1" fill="#1c2430" transform="translate(240.4 246.2) rotate(212)"/><polygon points="-4.9,-4.9 5.3,-3.9 4.4,4.6 -4.6,4.4" fill="#1c2430" transform="translate(278.1 179.3) rotate(41)"/><polygon points="-6.7,-5.9 8.0,-5.4 6.0,2.8 -5.4,6.0" fill="#9ea1a6" transform="translate(313.3 389.2) rotate(65)"/><polygon points="-6.9,-3.8 5.9,-5.5 6.2,5.8 -7.5,6.2" fill="#2f3136" transform="translate(152.5 55.3) rotate(335)"/><polygon points="-7.0,-6.2 8.0,-5.6 6.3,5.5 -4.2,6.3" fill="#c7c9cc" transform="translate(327.2 375.6) rotate(139)"/><polygon points="-3.9,-3.8 4.2,-3.1 3.5,3.7 -4.3,3.5" fill="#d9dadb" transform="translate(220.2 148.1) rotate(340)"/><polygon points="-5.2,-2.8 3.4,-4.2 4.7,3.3 -3.1,4.7" fill="#c7c9cc" transform="translate(17.6 348.4) rotate(18)"/><polygon points="-4.3,-3.0 3.3,-3.5 3.9,2.3 -3.9,3.9" fill="#9ea1a6" transform="translate(99.5 350.2) rotate(349)"/><polygon points="-7.6,-5.7 6.0,-6.1 6.9,3.4 -6.1,6.9" fill="#1c2430" transform="translate(383.4 234.5) rotate(125)"/><polygon points="-3.5,-2.6 4.2,-2.8 3.2,2.2 -3.8,3.2" fill="#4a6a8f" transform="translate(342.0 228.9) rotate(103)"/><polygon points="-5.6,-3.4 5.1,-4.5 5.0,4.5 -4.1,5.0" fill="#2f3136" transform="translate(137.6 310.3) rotate(41)"/><polygon points="-7.7,-7.3 5.2,-6.1 6.9,7.4 -3.9,6.9" fill="#9ea1a6" transform="translate(142.0 12.9) rotate(105)"/><polygon points="-7.2,-4.1 6.2,-5.8 6.5,5.7 -3.6,6.5" fill="#c7c9cc" transform="translate(408.4 402.5) rotate(345)"/><polygon points="-4.2,-2.5 2.9,-3.4 3.8,3.0 -3.4,3.8" fill="#4a6a8f" transform="translate(12.4 152.9) rotate(95)"/><polygon points="-6.2,-5.0 4.0,-5.0 5.6,4.3 -5.9,5.6" fill="#1c2430" transform="translate(152.7 91.2) rotate(302)"/><polygon points="-5.4,-4.5 4.2,-4.4 4.9,4.8 -3.6,4.9" fill="#9ea1a6" transform="translate(123.1 210.0) rotate(125)"/><polygon points="-6.6,-3.7 7.7,-5.2 5.9,2.7 -5.2,5.9" fill="#2f3136" transform="translate(56.0 357.9) rotate(321)"/><polygon points="-3.7,-3.3 3.6,-3.0 3.3,1.7 -2.1,3.3" fill="#9ea1a6" transform="translate(157.8 170.3) rotate(286)"/><polygon points="-7.1,-4.9 6.3,-5.7 6.4,4.1 -4.6,6.4" fill="#c7c9cc" transform="translate(398.5 378.0) rotate(99)"/><polygon points="-7.9,-7.2 8.3,-6.3 7.1,6.2 -7.0,7.1" fill="#1c2430" transform="translate(174.6 324.8) rotate(96)"/><polygon points="-3.6,-3.5 3.6,-2.8 3.2,2.1 -2.5,3.2" fill="#4a6a8f" transform="translate(295.1 59.4) rotate(290)"/><polygon points="-7.9,-5.0 7.1,-6.3 7.1,4.8 -4.3,7.1" fill="#9ea1a6" transform="translate(31.4 408.6) rotate(269)"/><polygon points="-6.8,-3.9 7.4,-5.4 6.1,4.8 -4.0,6.1" fill="#4a6a8f" transform="translate(205.5 406.5) rotate(96)"/><polygon points="-7.8,-5.9 9.1,-6.2 7.0,7.5 -6.6,7.0" fill="#2f3136" transform="translate(98.0 87.5) rotate(334)"/><polygon points="-6.0,-5.5 6.2,-4.8 5.4,6.0 -6.0,5.4" fill="#4a6a8f" transform="translate(205.9 225.0) rotate(169)"/><polygon points="-4.0,-3.7 2.9,-3.2 3.6,2.4 -4.0,3.6" fill="#d9dadb" transform="translate(94.3 93.2) rotate(294)"/><polygon points="-6.3,-6.0 4.6,-5.0 5.7,5.9 -4.8,5.7" fill="#d9dadb" transform="translate(322.8 323.2) rotate(201)"/><polygon points="-8.1,-7.6 5.9,-6.5 7.3,4.5 -5.3,7.3" fill="#2f3136" transform="translate(31.1 140.3) rotate(148)"/><polygon points="-7.2,-5.2 6.7,-5.7 6.4,3.0 -4.1,6.4" fill="#d9dadb" transform="translate(98.8 183.2) rotate(255)"/><polygon points="-7.5,-5.3 7.6,-6.0 6.7,4.9 -7.3,6.7" fill="#9ea1a6" transform="translate(15.7 312.4) rotate(180)"/><polygon points="-5.3,-4.4 5.7,-4.2 4.7,3.1 -5.2,4.7" fill="#9ea1a6" transform="translate(79.4 21.6) rotate(148)"/><polygon points="-7.8,-6.0 8.7,-6.2 7.0,7.5 -5.1,7.0" fill="#9ea1a6" transform="translate(279.7 362.7) rotate(306)"/><polygon points="-4.8,-4.2 4.5,-3.8 4.3,3.5 -4.0,4.3" fill="#2f3136" transform="translate(410.9 262.8) rotate(295)"/><polygon points="-4.3,-3.0 3.1,-3.4 3.9,4.1 -3.7,3.9" fill="#2f3136" transform="translate(226.7 253.1) rotate(295)"/><polygon points="-5.6,-4.3 5.2,-4.4 5.0,3.7 -3.1,5.0" fill="#c7c9cc" transform="translate(419.8 209.6) rotate(188)"/><polygon points="-4.1,-3.9 4.4,-3.3 3.7,3.6 -3.5,3.7" fill="#2f3136" transform="translate(400.0 4.2) rotate(336)"/><polygon points="-4.0,-3.4 3.0,-3.2 3.6,3.0 -4.0,3.6" fill="#c7c9cc" transform="translate(219.1 245.7) rotate(160)"/><polygon points="-3.6,-2.1 3.6,-2.9 3.3,3.1 -3.5,3.3" fill="#c7c9cc" transform="translate(22.8 38.4) rotate(239)"/><polygon points="-4.8,-4.6 4.8,-3.9 4.3,3.4 -4.1,4.3" fill="#4a6a8f" transform="translate(114.0 226.3) rotate(123)"/><polygon points="-4.4,-4.3 3.5,-3.6 4.0,4.0 -3.6,4.0" fill="#c7c9cc" transform="translate(242.2 0.1) rotate(206)"/><polygon points="-3.9,-3.6 3.2,-3.1 3.5,2.9 -2.0,3.5" fill="#c7c9cc" transform="translate(153.4 218.1) rotate(41)"/><polygon points="-6.7,-5.2 4.7,-5.3 6.0,4.8 -3.4,6.0" fill="#c7c9cc" transform="translate(20.2 304.8) rotate(335)"/><polygon points="-7.0,-5.9 7.9,-5.6 6.3,5.9 -5.5,6.3" fill="#1c2430" transform="translate(270.7 254.5) rotate(41)"/><polygon points="-4.4,-3.3 3.9,-3.5 3.9,3.4 -4.6,3.9" fill="#d9dadb" transform="translate(309.6 388.5) rotate(191)"/><polygon points="-4.5,-2.7 5.2,-3.6 4.0,3.3 -2.9,4.0" fill="#2f3136" transform="translate(320.3 176.0) rotate(314)"/><polygon points="-6.6,-4.5 5.5,-5.3 6.0,3.2 -4.4,6.0" fill="#1c2430" transform="translate(72.7 98.9) rotate(292)"/><polygon points="-6.4,-5.1 7.1,-5.2 5.8,3.3 -5.7,5.8" fill="#4a6a8f" transform="translate(42.8 139.8) rotate(81)"/><polygon points="-3.7,-3.0 4.0,-2.9 3.3,3.3 -2.4,3.3" fill="#2f3136" transform="translate(155.4 132.8) rotate(353)"/><polygon points="-4.6,-3.6 3.3,-3.7 4.2,2.0 -4.7,4.2" fill="#1c2430" transform="translate(329.8 309.8) rotate(263)"/><polygon points="-6.5,-5.4 6.6,-5.2 5.8,3.3 -3.6,5.8" fill="#d9dadb" transform="translate(242.6 241.7) rotate(320)"/><polygon points="-8.0,-6.2 8.6,-6.4 7.2,5.5 -4.9,7.2" fill="#2f3136" transform="translate(124.0 150.0) rotate(245)"/><polygon points="-4.7,-3.1 4.1,-3.8 4.2,3.2 -2.5,4.2" fill="#9ea1a6" transform="translate(360.5 39.0) rotate(104)"/><polygon points="-7.5,-5.3 8.7,-6.0 6.8,6.2 -6.1,6.8" fill="#4a6a8f" transform="translate(224.9 213.4) rotate(312)"/><polygon points="-4.2,-2.5 3.5,-3.4 3.8,3.0 -3.9,3.8" fill="#c7c9cc" transform="translate(342.3 91.3) rotate(337)"/><polygon points="-4.1,-2.4 2.7,-3.3 3.7,1.7 -3.7,3.7" fill="#2f3136" transform="translate(76.7 297.2) rotate(278)"/><polygon points="-5.1,-3.5 3.5,-4.1 4.6,2.7 -4.2,4.6" fill="#c7c9cc" transform="translate(303.8 321.9) rotate(199)"/><polygon points="-7.3,-4.4 7.3,-5.8 6.6,4.5 -8.0,6.6" fill="#c7c9cc" transform="translate(377.8 413.0) rotate(293)"/><polygon points="-5.9,-3.0 4.4,-4.8 5.3,5.0 -6.0,5.3" fill="#c7c9cc" transform="translate(390.4 100.7) rotate(194)"/><polygon points="-8.1,-5.9 8.8,-6.5 7.3,8.0 -7.9,7.3" fill="#2f3136" transform="translate(417.6 405.8) rotate(113)"/><polygon points="-3.8,-1.9 4.2,-3.0 3.4,2.5 -2.3,3.4" fill="#2f3136" transform="translate(0.0 18.6) rotate(222)"/><polygon points="-7.5,-4.6 6.9,-6.0 6.8,3.3 -3.8,6.8" fill="#2f3136" transform="translate(202.9 51.6) rotate(15)"/><polygon points="-4.9,-3.4 3.7,-3.9 4.4,3.6 -4.2,4.4" fill="#d9dadb" transform="translate(230.7 412.2) rotate(348)"/><polygon points="-7.0,-5.9 5.2,-5.6 6.3,5.4 -3.9,6.3" fill="#1c2430" transform="translate(334.0 278.3) rotate(347)"/><polygon points="-5.1,-4.6 3.9,-4.1 4.6,4.4 -3.2,4.6" fill="#2f3136" transform="translate(105.6 93.9) rotate(221)"/><polygon points="-5.8,-3.7 3.7,-4.7 5.2,5.2 -4.5,5.2" fill="#1c2430" transform="translate(258.4 213.5) rotate(242)"/><polygon points="-8.1,-7.5 8.1,-6.5 7.3,6.1 -6.0,7.3" fill="#d9dadb" transform="translate(24.4 114.8) rotate(321)"/><polygon points="-5.6,-4.3 6.4,-4.5 5.0,4.9 -3.1,5.0" fill="#2f3136" transform="translate(66.1 253.6) rotate(181)"/><polygon points="-5.2,-4.2 5.6,-4.2 4.7,4.9 -4.3,4.7" fill="#2f3136" transform="translate(177.3 7.0) rotate(104)"/><polygon points="-6.9,-3.9 6.1,-5.6 6.3,6.7 -5.8,6.3" fill="#c7c9cc" transform="translate(238.1 214.9) rotate(101)"/><polygon points="-3.6,-2.1 4.1,-2.8 3.2,1.9 -2.1,3.2" fill="#1c2430" transform="translate(76.6 217.0) rotate(316)"/><polygon points="-6.5,-4.8 6.2,-5.2 5.9,4.1 -4.6,5.9" fill="#d9dadb" transform="translate(296.6 37.6) rotate(46)"/><polygon points="-5.1,-2.6 3.5,-4.1 4.6,2.2 -5.5,4.6" fill="#9ea1a6" transform="translate(414.4 292.7) rotate(223)"/><polygon points="-5.9,-4.8 6.8,-4.7 5.3,4.3 -5.9,5.3" fill="#d9dadb" transform="translate(155.3 334.9) rotate(345)"/><polygon points="-4.6,-3.1 4.9,-3.7 4.2,2.4 -3.0,4.2" fill="#4a6a8f" transform="translate(237.4 50.3) rotate(275)"/><polygon points="-5.0,-4.0 3.6,-4.0 4.5,4.6 -5.2,4.5" fill="#c7c9cc" transform="translate(235.7 92.5) rotate(35)"/><polygon points="-6.8,-5.8 4.7,-5.4 6.1,6.2 -6.6,6.1" fill="#c7c9cc" transform="translate(40.0 296.6) rotate(181)"/><polygon points="-5.0,-2.6 4.7,-4.0 4.5,4.0 -3.6,4.5" fill="#d9dadb" transform="translate(369.8 204.4) rotate(39)"/><polygon points="-4.1,-3.5 4.0,-3.3 3.7,3.1 -3.5,3.7" fill="#c7c9cc" transform="translate(66.3 26.1) rotate(123)"/><polygon points="-3.8,-2.6 4.5,-3.0 3.4,2.2 -2.1,3.4" fill="#9ea1a6" transform="translate(391.8 314.5) rotate(107)"/><polygon points="-3.3,-2.6 3.0,-2.7 3.0,3.3 -3.5,3.0" fill="#2f3136" transform="translate(281.0 48.8) rotate(188)"/><polygon points="-5.5,-3.3 4.7,-4.4 4.9,3.9 -3.0,4.9" fill="#2f3136" transform="translate(409.9 235.2) rotate(249)"/><polygon points="-6.5,-4.6 5.4,-5.2 5.8,6.2 -6.8,5.8" fill="#c7c9cc" transform="translate(213.2 251.7) rotate(344)"/><polygon points="-4.2,-3.6 4.8,-3.3 3.8,1.9 -3.2,3.8" fill="#d9dadb" transform="translate(164.4 75.1) rotate(206)"/><polygon points="-5.9,-5.4 6.3,-4.7 5.3,5.4 -3.8,5.3" fill="#9ea1a6" transform="translate(272.3 244.3) rotate(16)"/><polygon points="-5.5,-4.2 5.6,-4.4 5.0,2.9 -4.3,5.0" fill="#4a6a8f" transform="translate(11.1 137.0) rotate(302)"/><polygon points="-7.0,-4.8 8.1,-5.6 6.3,4.9 -6.6,6.3" fill="#9ea1a6" transform="translate(112.9 157.5) rotate(339)"/><polygon points="-6.2,-6.1 5.3,-4.9 5.6,4.6 -6.2,5.6" fill="#9ea1a6" transform="translate(241.8 26.4) rotate(319)"/><polygon points="-6.8,-6.8 7.5,-5.5 6.2,6.0 -6.6,6.2" fill="#1c2430" transform="translate(356.7 284.7) rotate(71)"/><polygon points="-4.7,-4.3 5.1,-3.7 4.2,2.7 -5.1,4.2" fill="#4a6a8f" transform="translate(12.7 16.4) rotate(28)"/><polygon points="-5.9,-3.2 5.4,-4.7 5.3,4.8 -5.6,5.3" fill="#4a6a8f" transform="translate(216.5 191.9) rotate(2)"/><polygon points="-7.8,-5.2 4.7,-6.3 7.1,7.0 -4.6,7.1" fill="#4a6a8f" transform="translate(149.0 296.0) rotate(227)"/><polygon points="-6.1,-5.8 4.1,-4.9 5.5,4.0 -3.4,5.5" fill="#1c2430" transform="translate(53.6 320.2) rotate(168)"/><polygon points="-6.9,-6.0 5.0,-5.5 6.2,4.1 -6.3,6.2" fill="#4a6a8f" transform="translate(23.8 414.1) rotate(205)"/><polygon points="-6.2,-6.0 4.9,-4.9 5.6,4.0 -6.0,5.6" fill="#c7c9cc" transform="translate(287.3 25.1) rotate(349)"/><polygon points="-7.5,-6.3 4.7,-6.0 6.8,7.5 -4.3,6.8" fill="#4a6a8f" transform="translate(298.1 301.6) rotate(251)"/><polygon points="-6.2,-3.6 4.0,-5.0 5.6,3.4 -4.8,5.6" fill="#2f3136" transform="translate(338.7 316.0) rotate(334)"/><polygon points="-5.4,-5.0 3.7,-4.3 4.9,3.6 -3.6,4.9" fill="#d9dadb" transform="translate(371.1 264.1) rotate(50)"/><polygon points="-4.9,-3.4 3.5,-3.9 4.4,2.0 -3.6,4.4" fill="#9ea1a6" transform="translate(94.0 408.9) rotate(183)"/><polygon points="-5.2,-4.6 3.9,-4.2 4.7,2.5 -3.7,4.7" fill="#c7c9cc" transform="translate(357.7 60.4) rotate(34)"/><polygon points="-6.1,-5.0 4.0,-4.8 5.5,3.3 -3.8,5.5" fill="#c7c9cc" transform="translate(239.3 191.8) rotate(139)"/><polygon points="-5.3,-4.4 3.7,-4.3 4.8,2.6 -3.5,4.8" fill="#4a6a8f" transform="translate(408.9 262.5) rotate(346)"/><polygon points="-3.8,-2.4 4.1,-3.0 3.4,2.1 -3.0,3.4" fill="#9ea1a6" transform="translate(119.7 403.6) rotate(275)"/><polygon points="-4.3,-2.9 5.1,-3.5 3.9,1.8 -2.7,3.9" fill="#2f3136" transform="translate(142.5 34.2) rotate(79)"/><polygon points="-5.2,-5.2 3.8,-4.2 4.7,4.0 -5.0,4.7" fill="#9ea1a6" transform="translate(115.4 149.1) rotate(342)"/><polygon points="-7.7,-4.7 8.3,-6.2 6.9,3.4 -4.5,6.9" fill="#2f3136" transform="translate(73.5 338.7) rotate(62)"/><polygon points="-4.9,-4.2 5.8,-3.9 4.4,3.8 -2.9,4.4" fill="#9ea1a6" transform="translate(7.4 268.9) rotate(358)"/><polygon points="-3.4,-3.2 2.1,-2.7 3.1,1.7 -2.1,3.1" fill="#c7c9cc" transform="translate(89.8 14.7) rotate(42)"/><polygon points="-4.8,-2.9 3.4,-3.8 4.3,3.5 -4.5,4.3" fill="#2f3136" transform="translate(162.1 404.9) rotate(283)"/><polygon points="-4.4,-3.6 5.1,-3.5 4.0,4.1 -4.4,4.0" fill="#1c2430" transform="translate(333.7 186.6) rotate(303)"/><polygon points="-5.0,-4.0 3.4,-4.0 4.5,3.3 -4.0,4.5" fill="#2f3136" transform="translate(133.2 260.0) rotate(223)"/><polygon points="-5.2,-3.3 4.3,-4.2 4.7,2.7 -4.8,4.7" fill="#1c2430" transform="translate(174.8 180.1) rotate(91)"/><polygon points="-3.6,-3.0 3.3,-2.9 3.3,2.9 -2.8,3.3" fill="#2f3136" transform="translate(413.9 75.6) rotate(26)"/><polygon points="-5.3,-4.9 4.1,-4.2 4.8,4.7 -4.0,4.8" fill="#c7c9cc" transform="translate(388.9 158.5) rotate(358)"/><polygon points="-4.3,-2.2 4.4,-3.4 3.8,3.8 -4.6,3.8" fill="#c7c9cc" transform="translate(36.6 375.7) rotate(128)"/><polygon points="-5.9,-3.4 5.8,-4.8 5.3,4.6 -3.8,5.3" fill="#d9dadb" transform="translate(0.9 417.9) rotate(258)"/><polygon points="-7.7,-6.0 9.3,-6.2 6.9,6.0 -7.4,6.9" fill="#2f3136" transform="translate(235.2 101.0) rotate(154)"/><polygon points="-5.1,-4.7 4.6,-4.1 4.6,4.2 -3.6,4.6" fill="#d9dadb" transform="translate(75.4 351.0) rotate(229)"/><polygon points="-7.2,-4.1 4.5,-5.8 6.5,5.8 -5.1,6.5" fill="#c7c9cc" transform="translate(148.0 330.5) rotate(92)"/><polygon points="-4.8,-3.1 4.5,-3.8 4.3,3.0 -5.2,4.3" fill="#4a6a8f" transform="translate(386.4 414.1) rotate(300)"/><polygon points="-5.5,-4.5 5.7,-4.4 4.9,2.7 -5.5,4.9" fill="#4a6a8f" transform="translate(8.6 81.8) rotate(121)"/><polygon points="-6.2,-5.1 7.1,-4.9 5.6,6.0 -4.5,5.6" fill="#9ea1a6" transform="translate(84.3 12.9) rotate(8)"/><polygon points="-5.1,-3.0 4.9,-4.1 4.6,2.2 -4.0,4.6" fill="#2f3136" transform="translate(335.2 386.1) rotate(311)"/><polygon points="-8.1,-4.1 5.2,-6.5 7.3,3.6 -7.1,7.3" fill="#1c2430" transform="translate(154.8 174.7) rotate(218)"/><polygon points="-6.1,-4.2 4.1,-4.9 5.5,2.9 -5.2,5.5" fill="#2f3136" transform="translate(275.8 10.1) rotate(108)"/><polygon points="-5.9,-3.1 4.5,-4.7 5.3,4.0 -3.3,5.3" fill="#d9dadb" transform="translate(260.4 355.6) rotate(206)"/><polygon points="-7.2,-6.2 4.6,-5.7 6.4,4.3 -5.3,6.4" fill="#2f3136" transform="translate(237.0 4.7) rotate(306)"/><polygon points="-8.1,-4.6 5.1,-6.5 7.3,3.5 -4.5,7.3" fill="#1c2430" transform="translate(419.9 328.8) rotate(174)"/><polygon points="-5.1,-5.1 3.2,-4.1 4.6,4.7 -3.6,4.6" fill="#1c2430" transform="translate(410.7 335.9) rotate(278)"/><polygon points="-5.2,-5.1 5.3,-4.2 4.7,2.4 -5.3,4.7" fill="#9ea1a6" transform="translate(136.3 87.6) rotate(58)"/><polygon points="-4.8,-3.3 3.9,-3.8 4.3,3.3 -4.3,4.3" fill="#4a6a8f" transform="translate(156.7 211.3) rotate(262)"/><polygon points="-4.8,-3.4 4.0,-3.8 4.3,4.6 -2.4,4.3" fill="#9ea1a6" transform="translate(201.6 409.6) rotate(125)"/><polygon points="-5.4,-4.4 3.6,-4.3 4.8,4.7 -5.3,4.8" fill="#2f3136" transform="translate(271.2 220.6) rotate(47)"/><polygon points="-7.9,-5.4 5.9,-6.3 7.1,3.7 -7.5,7.1" fill="#9ea1a6" transform="translate(80.1 400.7) rotate(268)"/><polygon points="-7.8,-5.8 6.9,-6.2 7.0,4.2 -5.2,7.0" fill="#c7c9cc" transform="translate(133.0 114.8) rotate(229)"/><polygon points="-4.8,-4.0 5.0,-3.8 4.3,2.6 -3.9,4.3" fill="#2f3136" transform="translate(75.5 133.6) rotate(273)"/><polygon points="-8.0,-5.9 9.4,-6.4 7.2,3.7 -7.0,7.2" fill="#9ea1a6" transform="translate(399.4 229.9) rotate(64)"/><polygon points="-5.1,-3.7 3.6,-4.1 4.6,4.9 -3.3,4.6" fill="#d9dadb" transform="translate(281.1 121.1) rotate(179)"/><polygon points="-5.1,-4.0 3.6,-4.1 4.6,4.3 -4.4,4.6" fill="#9ea1a6" transform="translate(371.8 405.7) rotate(77)"/><polygon points="-5.8,-3.2 6.6,-4.7 5.2,3.6 -4.9,5.2" fill="#9ea1a6" transform="translate(1.6 402.0) rotate(291)"/><polygon points="-7.5,-5.5 4.7,-6.0 6.8,7.5 -5.3,6.8" fill="#d9dadb" transform="translate(224.9 285.3) rotate(350)"/><polygon points="-6.0,-4.5 4.6,-4.8 5.4,5.7 -4.7,5.4" fill="#1c2430" transform="translate(363.1 64.0) rotate(343)"/><polygon points="-4.5,-3.4 4.4,-3.6 4.0,2.2 -3.7,4.0" fill="#2f3136" transform="translate(26.3 292.3) rotate(23)"/><polygon points="-4.0,-3.1 3.1,-3.2 3.6,2.1 -4.1,3.6" fill="#9ea1a6" transform="translate(263.5 16.4) rotate(49)"/><polygon points="-5.3,-2.7 5.2,-4.2 4.7,5.1 -5.2,4.7" fill="#d9dadb" transform="translate(133.7 179.4) rotate(356)"/><polygon points="-3.9,-2.7 3.4,-3.1 3.5,2.5 -3.8,3.5" fill="#9ea1a6" transform="translate(418.7 32.1) rotate(289)"/><polygon points="-7.3,-6.9 6.3,-5.9 6.6,4.9 -5.9,6.6" fill="#c7c9cc" transform="translate(237.6 60.4) rotate(126)"/><polygon points="-6.1,-4.6 5.0,-4.9 5.5,6.0 -3.2,5.5" fill="#4a6a8f" transform="translate(276.2 162.9) rotate(343)"/><polygon points="-4.2,-3.9 3.0,-3.3 3.7,2.6 -2.3,3.7" fill="#4a6a8f" transform="translate(344.5 403.0) rotate(307)"/><polygon points="-4.2,-2.9 3.0,-3.4 3.8,3.2 -2.4,3.8" fill="#4a6a8f" transform="translate(163.6 149.0) rotate(133)"/><polygon points="-4.0,-3.4 3.9,-3.2 3.6,3.6 -4.0,3.6" fill="#c7c9cc" transform="translate(234.9 130.1) rotate(185)"/><polygon points="-4.6,-2.5 3.2,-3.7 4.1,2.2 -4.6,4.1" fill="#4a6a8f" transform="translate(202.4 265.3) rotate(62)"/><polygon points="-7.3,-7.2 6.9,-5.9 6.6,6.1 -5.4,6.6" fill="#d9dadb" transform="translate(146.5 298.1) rotate(76)"/><polygon points="-6.9,-3.6 5.0,-5.5 6.2,3.8 -6.6,6.2" fill="#c7c9cc" transform="translate(155.3 258.0) rotate(313)"/><polygon points="-5.0,-3.6 3.5,-4.0 4.5,2.7 -3.2,4.5" fill="#2f3136" transform="translate(177.1 184.1) rotate(59)"/><polygon points="-6.1,-5.1 5.1,-4.9 5.5,3.3 -3.4,5.5" fill="#d9dadb" transform="translate(344.5 412.9) rotate(328)"/><polygon points="-4.8,-4.6 3.3,-3.9 4.4,3.7 -4.4,4.4" fill="#4a6a8f" transform="translate(310.9 316.9) rotate(167)"/><polygon points="-7.6,-3.9 5.3,-6.0 6.8,3.1 -6.3,6.8" fill="#9ea1a6" transform="translate(305.7 44.4) rotate(10)"/><polygon points="-4.5,-3.8 3.3,-3.6 4.0,3.0 -2.4,4.0" fill="#9ea1a6" transform="translate(164.4 371.2) rotate(212)"/><polygon points="-5.9,-4.7 5.2,-4.7 5.3,4.0 -3.9,5.3" fill="#1c2430" transform="translate(104.3 52.4) rotate(7)"/><polygon points="-6.9,-5.6 6.4,-5.5 6.2,5.6 -7.4,6.2" fill="#c7c9cc" transform="translate(258.8 149.5) rotate(140)"/><polygon points="-5.7,-3.6 5.6,-4.5 5.1,4.7 -5.1,5.1" fill="#c7c9cc" transform="translate(260.3 125.5) rotate(229)"/><polygon points="-5.5,-5.1 5.1,-4.4 4.9,3.6 -3.0,4.9" fill="#2f3136" transform="translate(71.1 389.7) rotate(182)"/><polygon points="-6.5,-6.4 7.5,-5.2 5.8,6.3 -4.9,5.8" fill="#4a6a8f" transform="translate(86.3 381.1) rotate(141)"/><polygon points="-4.6,-2.8 3.0,-3.7 4.1,2.6 -3.9,4.1" fill="#1c2430" transform="translate(148.8 129.7) rotate(337)"/><polygon points="-4.1,-3.4 2.5,-3.3 3.7,2.2 -4.0,3.7" fill="#2f3136" transform="translate(24.5 254.4) rotate(36)"/><polygon points="-8.0,-6.5 5.1,-6.4 7.2,7.3 -4.6,7.2" fill="#1c2430" transform="translate(340.3 343.6) rotate(341)"/><polygon points="-8.0,-7.7 8.6,-6.4 7.2,4.2 -4.1,7.2" fill="#c7c9cc" transform="translate(106.0 338.5) rotate(76)"/><polygon points="-5.9,-4.8 7.0,-4.7 5.3,3.6 -5.3,5.3" fill="#1c2430" transform="translate(96.0 414.6) rotate(241)"/><polygon points="-4.5,-4.1 4.9,-3.6 4.0,3.6 -3.9,4.0" fill="#1c2430" transform="translate(160.5 131.5) rotate(47)"/><polygon points="-7.6,-6.8 8.9,-6.1 6.8,3.2 -7.0,6.8" fill="#9ea1a6" transform="translate(200.2 227.4) rotate(151)"/><polygon points="-5.6,-4.3 5.2,-4.5 5.0,2.8 -2.9,5.0" fill="#9ea1a6" transform="translate(251.2 145.6) rotate(139)"/><polygon points="-5.5,-4.2 5.0,-4.4 5.0,4.2 -4.8,5.0" fill="#d9dadb" transform="translate(177.8 93.8) rotate(243)"/><polygon points="-5.4,-3.5 5.7,-4.3 4.9,4.4 -4.7,4.9" fill="#4a6a8f" transform="translate(143.0 21.1) rotate(6)"/><polygon points="-8.0,-5.0 6.4,-6.4 7.2,4.0 -8.4,7.2" fill="#4a6a8f" transform="translate(371.5 41.5) rotate(260)"/><polygon points="-3.8,-2.7 3.0,-3.1 3.5,3.4 -2.1,3.5" fill="#2f3136" transform="translate(66.0 398.8) rotate(289)"/><polygon points="-5.7,-4.8 4.5,-4.5 5.1,3.5 -5.2,5.1" fill="#2f3136" transform="translate(365.0 175.9) rotate(326)"/><polygon points="-4.6,-4.2 4.7,-3.7 4.2,2.2 -4.6,4.2" fill="#4a6a8f" transform="translate(290.2 155.8) rotate(88)"/><polygon points="-6.1,-3.1 7.2,-4.9 5.5,4.6 -5.2,5.5" fill="#2f3136" transform="translate(218.9 124.1) rotate(32)"/><polygon points="-4.2,-3.2 3.0,-3.4 3.8,2.4 -3.8,3.8" fill="#2f3136" transform="translate(274.7 375.2) rotate(73)"/><polygon points="-6.5,-4.5 5.1,-5.2 5.8,4.3 -6.0,5.8" fill="#4a6a8f" transform="translate(46.0 218.5) rotate(89)"/><polygon points="-5.6,-4.0 6.3,-4.5 5.1,4.7 -5.5,5.1" fill="#9ea1a6" transform="translate(185.5 117.3) rotate(130)"/><polygon points="-4.6,-2.3 4.4,-3.7 4.2,2.3 -3.9,4.2" fill="#2f3136" transform="translate(403.8 132.4) rotate(178)"/><polygon points="-3.6,-3.3 3.9,-2.8 3.2,1.7 -3.4,3.2" fill="#9ea1a6" transform="translate(228.4 150.3) rotate(282)"/><polygon points="-8.1,-4.3 6.0,-6.5 7.3,3.4 -5.8,7.3" fill="#1c2430" transform="translate(272.6 317.6) rotate(298)"/><polygon points="-7.9,-4.2 7.0,-6.3 7.1,6.9 -8.7,7.1" fill="#9ea1a6" transform="translate(57.8 324.8) rotate(106)"/><polygon points="-6.2,-3.4 4.4,-5.0 5.6,4.0 -5.6,5.6" fill="#9ea1a6" transform="translate(360.6 248.4) rotate(121)"/><polygon points="-8.1,-4.9 7.5,-6.5 7.3,6.4 -5.3,7.3" fill="#4a6a8f" transform="translate(319.0 311.8) rotate(289)"/><polygon points="-3.8,-3.1 4.5,-3.1 3.5,2.2 -3.9,3.5" fill="#d9dadb" transform="translate(203.4 113.8) rotate(119)"/><polygon points="-7.8,-5.1 5.2,-6.3 7.0,5.6 -7.4,7.0" fill="#c7c9cc" transform="translate(346.9 311.1) rotate(222)"/><polygon points="-5.5,-5.4 6.5,-4.4 4.9,5.1 -5.8,4.9" fill="#d9dadb" transform="translate(186.3 311.2) rotate(292)"/><polygon points="-3.8,-2.8 4.1,-3.0 3.4,3.7 -4.0,3.4" fill="#c7c9cc" transform="translate(232.9 300.6) rotate(300)"/><polygon points="-3.8,-2.4 3.4,-3.0 3.4,2.0 -2.0,3.4" fill="#c7c9cc" transform="translate(325.3 21.8) rotate(106)"/><polygon points="-6.1,-4.7 7.2,-4.8 5.5,3.6 -6.3,5.5" fill="#9ea1a6" transform="translate(248.5 326.6) rotate(146)"/><polygon points="-7.0,-4.4 7.6,-5.6 6.3,4.8 -5.2,6.3" fill="#c7c9cc" transform="translate(253.8 243.0) rotate(245)"/><polygon points="-4.8,-2.5 5.5,-3.8 4.3,2.7 -3.1,4.3" fill="#1c2430" transform="translate(401.9 294.9) rotate(158)"/><polygon points="-8.0,-4.9 5.3,-6.4 7.2,4.3 -7.5,7.2" fill="#4a6a8f" transform="translate(357.7 329.2) rotate(268)"/><polygon points="-7.6,-4.6 8.8,-6.1 6.9,4.5 -8.3,6.9" fill="#d9dadb" transform="translate(339.1 321.4) rotate(252)"/><polygon points="-5.1,-3.1 5.1,-4.1 4.6,2.7 -4.7,4.6" fill="#4a6a8f" transform="translate(368.4 199.6) rotate(105)"/><polygon points="-7.7,-4.2 8.5,-6.1 6.9,6.6 -4.1,6.9" fill="#9ea1a6" transform="translate(250.7 316.9) rotate(135)"/><polygon points="-5.1,-5.0 5.7,-4.1 4.6,2.2 -3.0,4.6" fill="#d9dadb" transform="translate(10.4 221.5) rotate(206)"/><polygon points="-4.0,-2.9 4.8,-3.2 3.6,2.7 -4.1,3.6" fill="#1c2430" transform="translate(203.1 117.1) rotate(259)"/><polygon points="-4.7,-3.1 3.0,-3.7 4.2,3.9 -2.4,4.2" fill="#4a6a8f" transform="translate(389.7 242.3) rotate(354)"/><polygon points="-5.1,-3.1 5.7,-4.1 4.6,2.3 -3.9,4.6" fill="#1c2430" transform="translate(390.5 7.1) rotate(230)"/><polygon points="-4.0,-2.1 4.1,-3.2 3.6,2.1 -2.1,3.6" fill="#c7c9cc" transform="translate(370.6 150.2) rotate(187)"/><polygon points="-5.9,-3.8 4.1,-4.8 5.4,5.6 -6.0,5.4" fill="#2f3136" transform="translate(152.6 65.2) rotate(115)"/><polygon points="-7.7,-7.5 8.7,-6.2 6.9,6.5 -5.7,6.9" fill="#1c2430" transform="translate(147.2 272.6) rotate(105)"/><polygon points="-4.1,-4.0 3.6,-3.3 3.7,2.9 -4.2,3.7" fill="#1c2430" transform="translate(47.0 97.8) rotate(341)"/><polygon points="-4.0,-3.2 3.7,-3.2 3.6,3.9 -3.1,3.6" fill="#d9dadb" transform="translate(18.0 149.5) rotate(256)"/><polygon points="-5.2,-2.7 5.1,-4.2 4.7,4.7 -4.7,4.7" fill="#2f3136" transform="translate(273.2 337.8) rotate(141)"/><polygon points="-7.8,-7.5 6.9,-6.2 7.0,3.8 -4.4,7.0" fill="#c7c9cc" transform="translate(361.0 236.6) rotate(219)"/><polygon points="-6.4,-3.8 7.0,-5.1 5.8,2.9 -3.9,5.8" fill="#9ea1a6" transform="translate(22.2 0.1) rotate(167)"/><polygon points="-4.8,-4.0 3.0,-3.8 4.3,2.0 -5.2,4.3" fill="#4a6a8f" transform="translate(235.8 249.9) rotate(17)"/><polygon points="-7.4,-5.8 8.4,-5.9 6.7,4.7 -4.1,6.7" fill="#2f3136" transform="translate(214.9 35.1) rotate(47)"/><polygon points="-5.5,-4.8 5.6,-4.4 4.9,2.8 -2.8,4.9" fill="#2f3136" transform="translate(87.6 290.5) rotate(40)"/><polygon points="-7.6,-6.3 8.7,-6.1 6.9,4.0 -6.6,6.9" fill="#1c2430" transform="translate(169.6 304.9) rotate(315)"/><polygon points="-7.6,-5.0 7.4,-6.1 6.8,5.4 -7.4,6.8" fill="#d9dadb" transform="translate(184.7 3.3) rotate(346)"/><polygon points="-6.8,-4.4 8.1,-5.5 6.1,6.4 -7.3,6.1" fill="#1c2430" transform="translate(312.6 344.6) rotate(151)"/><polygon points="-4.8,-3.1 5.1,-3.8 4.3,2.8 -4.3,4.3" fill="#1c2430" transform="translate(171.8 303.1) rotate(73)"/><polygon points="-5.5,-3.4 4.0,-4.4 5.0,3.7 -4.3,5.0" fill="#d9dadb" transform="translate(210.8 203.1) rotate(37)"/><polygon points="-4.9,-3.1 4.3,-3.9 4.4,4.1 -2.8,4.4" fill="#4a6a8f" transform="translate(398.3 117.6) rotate(101)"/><polygon points="-5.1,-3.5 3.4,-4.1 4.6,3.4 -4.9,4.6" fill="#9ea1a6" transform="translate(105.0 129.4) rotate(261)"/><polygon points="-3.9,-2.1 4.4,-3.1 3.5,2.9 -4.0,3.5" fill="#d9dadb" transform="translate(33.0 278.1) rotate(280)"/><polygon points="-5.1,-2.9 3.4,-4.1 4.6,3.4 -3.4,4.6" fill="#2f3136" transform="translate(223.7 96.4) rotate(101)"/><polygon points="-4.1,-2.2 3.5,-3.2 3.7,2.9 -2.2,3.7" fill="#4a6a8f" transform="translate(298.0 66.9) rotate(94)"/><polygon points="-4.6,-3.6 4.6,-3.7 4.1,2.6 -3.1,4.1" fill="#1c2430" transform="translate(85.5 147.7) rotate(100)"/><polygon points="-6.7,-5.4 7.6,-5.4 6.0,3.9 -4.1,6.0" fill="#4a6a8f" transform="translate(419.2 22.0) rotate(358)"/><polygon points="-5.6,-4.1 4.2,-4.5 5.0,3.4 -4.3,5.0" fill="#9ea1a6" transform="translate(180.1 31.7) rotate(279)"/><polygon points="-3.4,-2.9 2.2,-2.7 3.1,3.1 -2.4,3.1" fill="#9ea1a6" transform="translate(314.2 343.4) rotate(360)"/><polygon points="-3.5,-1.7 3.5,-2.8 3.1,2.7 -3.4,3.1" fill="#c7c9cc" transform="translate(24.7 292.4) rotate(151)"/><polygon points="-7.7,-6.4 6.2,-6.2 6.9,7.1 -7.3,6.9" fill="#9ea1a6" transform="translate(86.5 269.0) rotate(148)"/><polygon points="-5.1,-4.3 4.7,-4.1 4.6,3.2 -4.0,4.6" fill="#9ea1a6" transform="translate(113.2 242.2) rotate(135)"/><polygon points="-6.2,-4.2 5.1,-5.0 5.6,6.0 -4.9,5.6" fill="#4a6a8f" transform="translate(402.8 68.4) rotate(284)"/><polygon points="-7.9,-7.7 7.0,-6.3 7.1,4.1 -7.5,7.1" fill="#d9dadb" transform="translate(329.5 382.7) rotate(132)"/><polygon points="-7.7,-4.6 7.3,-6.2 6.9,5.9 -5.4,6.9" fill="#d9dadb" transform="translate(85.5 20.1) rotate(243)"/><polygon points="-6.4,-5.6 6.9,-5.1 5.8,4.0 -4.1,5.8" fill="#4a6a8f" transform="translate(82.8 98.3) rotate(337)"/><polygon points="-3.8,-2.6 2.4,-3.1 3.4,3.2 -3.2,3.4" fill="#2f3136" transform="translate(293.1 98.6) rotate(53)"/><polygon points="-3.6,-3.0 2.5,-2.9 3.3,2.0 -2.3,3.3" fill="#2f3136" transform="translate(405.0 26.3) rotate(306)"/><polygon points="-6.4,-6.0 5.1,-5.1 5.7,2.6 -4.1,5.7" fill="#9ea1a6" transform="translate(44.8 77.1) rotate(38)"/><polygon points="-4.8,-3.4 3.5,-3.9 4.4,2.0 -4.9,4.4" fill="#4a6a8f" transform="translate(48.0 279.5) rotate(31)"/><polygon points="-5.6,-4.1 6.0,-4.4 5.0,3.3 -3.3,5.0" fill="#c7c9cc" transform="translate(188.0 33.8) rotate(204)"/><polygon points="-6.8,-4.1 4.2,-5.5 6.1,5.7 -4.2,6.1" fill="#1c2430" transform="translate(276.7 313.6) rotate(97)"/><polygon points="-7.0,-5.7 7.7,-5.6 6.3,3.6 -7.0,6.3" fill="#c7c9cc" transform="translate(342.1 179.5) rotate(302)"/><polygon points="-6.5,-5.5 6.2,-5.2 5.8,3.4 -6.4,5.8" fill="#c7c9cc" transform="translate(286.2 63.4) rotate(292)"/><polygon points="-6.2,-4.7 3.8,-5.0 5.6,6.0 -4.2,5.6" fill="#4a6a8f" transform="translate(320.1 313.4) rotate(79)"/><polygon points="-7.8,-6.7 8.6,-6.3 7.0,4.8 -7.4,7.0" fill="#9ea1a6" transform="translate(69.8 134.4) rotate(146)"/><polygon points="-6.2,-4.3 6.6,-5.0 5.6,5.7 -5.7,5.6" fill="#c7c9cc" transform="translate(222.4 353.8) rotate(151)"/><polygon points="-6.6,-6.0 7.1,-5.3 6.0,6.2 -6.1,6.0" fill="#4a6a8f" transform="translate(157.7 210.0) rotate(356)"/><polygon points="-4.7,-3.8 5.0,-3.7 4.2,4.0 -2.4,4.2" fill="#9ea1a6" transform="translate(395.6 117.3) rotate(53)"/><polygon points="-7.3,-7.0 6.6,-5.8 6.5,5.3 -6.8,6.5" fill="#1c2430" transform="translate(29.8 166.3) rotate(296)"/><polygon points="-5.9,-3.7 4.6,-4.8 5.3,3.4 -4.6,5.3" fill="#4a6a8f" transform="translate(84.8 393.7) rotate(353)"/><polygon points="-3.6,-1.9 2.6,-2.9 3.2,2.8 -3.8,3.2" fill="#1c2430" transform="translate(264.0 189.0) rotate(81)"/><polygon points="-5.4,-3.3 3.6,-4.3 4.9,5.1 -5.5,4.9" fill="#4a6a8f" transform="translate(60.5 369.6) rotate(258)"/><polygon points="-5.1,-4.1 5.8,-4.1 4.6,2.8 -2.8,4.6" fill="#d9dadb" transform="translate(95.4 395.8) rotate(160)"/><polygon points="-4.2,-3.6 2.8,-3.4 3.8,2.7 -2.7,3.8" fill="#2f3136" transform="translate(307.0 311.7) rotate(144)"/><polygon points="-4.2,-4.0 4.4,-3.3 3.8,3.6 -3.8,3.8" fill="#9ea1a6" transform="translate(131.3 18.6) rotate(196)"/><polygon points="-7.9,-7.9 6.9,-6.4 7.2,4.0 -5.0,7.2" fill="#2f3136" transform="translate(369.9 247.9) rotate(119)"/><polygon points="-7.9,-5.1 8.1,-6.4 7.1,3.3 -5.2,7.1" fill="#2f3136" transform="translate(234.6 233.5) rotate(2)"/><polygon points="-4.0,-3.0 3.0,-3.2 3.6,3.5 -3.9,3.6" fill="#4a6a8f" transform="translate(419.5 88.9) rotate(24)"/><polygon points="-7.2,-4.5 5.4,-5.8 6.5,6.8 -4.2,6.5" fill="#c7c9cc" transform="translate(34.1 292.3) rotate(275)"/><polygon points="-5.4,-4.5 5.6,-4.3 4.9,2.9 -4.4,4.9" fill="#2f3136" transform="translate(44.9 70.6) rotate(241)"/><polygon points="-5.4,-3.9 4.1,-4.3 4.9,5.1 -4.9,4.9" fill="#9ea1a6" transform="translate(346.3 310.6) rotate(118)"/><polygon points="-4.1,-2.1 2.7,-3.3 3.7,3.3 -2.2,3.7" fill="#d9dadb" transform="translate(26.9 94.5) rotate(65)"/><polygon points="-4.9,-3.6 4.0,-3.9 4.4,4.9 -4.4,4.4" fill="#2f3136" transform="translate(143.4 373.1) rotate(239)"/><polygon points="-4.1,-2.2 3.1,-3.3 3.7,3.7 -2.9,3.7" fill="#c7c9cc" transform="translate(148.7 11.8) rotate(356)"/><polygon points="-7.1,-5.5 6.9,-5.7 6.4,5.2 -4.4,6.4" fill="#9ea1a6" transform="translate(309.1 111.4) rotate(227)"/><polygon points="-3.9,-2.5 3.8,-3.1 3.5,1.9 -3.9,3.5" fill="#c7c9cc" transform="translate(40.4 292.1) rotate(237)"/><polygon points="-5.9,-4.9 5.5,-4.8 5.3,3.2 -5.8,5.3" fill="#c7c9cc" transform="translate(362.8 301.2) rotate(81)"/><polygon points="-6.1,-4.4 4.6,-4.9 5.5,4.4 -5.2,5.5" fill="#c7c9cc" transform="translate(255.9 167.2) rotate(77)"/><polygon points="-6.6,-4.5 4.2,-5.3 6.0,4.2 -4.0,6.0" fill="#9ea1a6" transform="translate(27.4 397.2) rotate(107)"/><polygon points="-7.7,-6.5 5.8,-6.2 7.0,3.3 -5.7,7.0" fill="#c7c9cc" transform="translate(368.5 233.2) rotate(50)"/><polygon points="-6.9,-6.1 5.6,-5.6 6.2,2.8 -5.5,6.2" fill="#d9dadb" transform="translate(126.8 305.0) rotate(205)"/><polygon points="-7.9,-4.3 6.0,-6.3 7.1,5.7 -6.5,7.1" fill="#c7c9cc" transform="translate(375.7 31.5) rotate(323)"/><polygon points="-4.8,-3.6 4.6,-3.8 4.3,2.2 -4.9,4.3" fill="#d9dadb" transform="translate(268.9 166.9) rotate(311)"/><polygon points="-5.7,-4.6 5.4,-4.6 5.1,5.2 -3.7,5.1" fill="#1c2430" transform="translate(398.4 265.7) rotate(217)"/><polygon points="-4.7,-3.4 4.4,-3.8 4.2,4.1 -2.8,4.2" fill="#2f3136" transform="translate(55.8 310.8) rotate(143)"/><polygon points="-6.4,-6.1 6.2,-5.1 5.7,6.1 -6.8,5.7" fill="#4a6a8f" transform="translate(315.7 179.3) rotate(83)"/><polygon points="-5.0,-3.0 4.9,-4.0 4.5,4.5 -3.6,4.5" fill="#2f3136" transform="translate(152.2 260.0) rotate(42)"/><polygon points="-5.1,-2.9 4.6,-4.1 4.6,3.7 -3.2,4.6" fill="#4a6a8f" transform="translate(306.6 288.3) rotate(223)"/><polygon points="-7.8,-4.7 7.8,-6.2 7.0,4.0 -8.0,7.0" fill="#9ea1a6" transform="translate(331.0 271.9) rotate(356)"/><polygon points="-7.1,-4.0 7.5,-5.7 6.4,3.7 -6.0,6.4" fill="#4a6a8f" transform="translate(33.7 221.0) rotate(248)"/><polygon points="-4.6,-4.0 3.8,-3.6 4.1,3.2 -3.8,4.1" fill="#1c2430" transform="translate(268.4 196.5) rotate(194)"/><polygon points="-5.2,-3.0 4.0,-4.1 4.7,3.2 -4.5,4.7" fill="#4a6a8f" transform="translate(81.2 47.4) rotate(100)"/><polygon points="-7.0,-5.8 6.4,-5.6 6.3,7.0 -6.0,6.3" fill="#4a6a8f" transform="translate(414.4 141.5) rotate(56)"/><polygon points="-7.9,-6.1 7.3,-6.4 7.2,7.7 -8.3,7.2" fill="#1c2430" transform="translate(15.8 234.6) rotate(19)"/><polygon points="-6.4,-3.7 7.5,-5.1 5.7,3.4 -5.3,5.7" fill="#1c2430" transform="translate(367.1 149.5) rotate(202)"/><polygon points="-7.0,-6.6 4.6,-5.6 6.3,3.3 -7.2,6.3" fill="#4a6a8f" transform="translate(384.1 38.4) rotate(78)"/><polygon points="-5.9,-3.4 5.0,-4.7 5.3,5.6 -4.3,5.3" fill="#c7c9cc" transform="translate(226.8 100.9) rotate(229)"/><polygon points="-7.7,-7.2 5.3,-6.1 6.9,4.3 -5.4,6.9" fill="#2f3136" transform="translate(399.3 377.1) rotate(293)"/><polygon points="-7.3,-5.8 4.6,-5.8 6.5,4.2 -7.6,6.5" fill="#d9dadb" transform="translate(378.5 316.4) rotate(105)"/><polygon points="-5.5,-5.1 3.4,-4.4 5.0,5.3 -4.3,5.0" fill="#1c2430" transform="translate(244.6 77.4) rotate(150)"/><polygon points="-4.9,-4.1 3.0,-3.9 4.4,2.0 -4.8,4.4" fill="#9ea1a6" transform="translate(58.7 77.6) rotate(306)"/><polygon points="-7.4,-5.3 7.3,-5.9 6.6,3.6 -5.0,6.6" fill="#1c2430" transform="translate(186.5 203.2) rotate(86)"/><polygon points="-3.3,-2.0 4.0,-2.7 3.0,2.0 -3.3,3.0" fill="#2f3136" transform="translate(212.9 132.4) rotate(257)"/><polygon points="-5.1,-2.9 5.5,-4.1 4.6,4.7 -4.2,4.6" fill="#4a6a8f" transform="translate(124.6 275.5) rotate(221)"/><polygon points="-5.1,-4.8 5.4,-4.0 4.5,2.6 -3.9,4.5" fill="#4a6a8f" transform="translate(377.8 213.4) rotate(7)"/><polygon points="-7.3,-6.4 6.3,-5.8 6.5,4.9 -6.1,6.5" fill="#d9dadb" transform="translate(99.2 167.6) rotate(219)"/><polygon points="-3.8,-1.9 2.7,-3.1 3.5,3.4 -2.4,3.5" fill="#c7c9cc" transform="translate(180.6 303.6) rotate(185)"/><polygon points="-4.2,-3.3 4.0,-3.4 3.8,2.8 -2.1,3.8" fill="#d9dadb" transform="translate(95.2 11.4) rotate(174)"/><polygon points="-4.6,-4.5 3.9,-3.7 4.2,3.5 -2.8,4.2" fill="#1c2430" transform="translate(277.2 268.3) rotate(10)"/><polygon points="-7.7,-7.3 6.7,-6.2 6.9,3.7 -7.9,6.9" fill="#2f3136" transform="translate(129.4 328.0) rotate(142)"/><polygon points="-6.3,-4.1 4.0,-5.0 5.6,6.0 -5.0,5.6" fill="#c7c9cc" transform="translate(201.2 233.6) rotate(19)"/><polygon points="-6.8,-4.1 6.8,-5.5 6.2,6.0 -4.6,6.2" fill="#1c2430" transform="translate(195.4 265.6) rotate(1)"/><polygon points="-7.1,-3.6 4.5,-5.6 6.4,3.8 -5.0,6.4" fill="#2f3136" transform="translate(137.9 250.9) rotate(206)"/><polygon points="-5.0,-4.9 5.0,-4.0 4.5,2.5 -2.9,4.5" fill="#2f3136" transform="translate(167.1 194.3) rotate(142)"/><polygon points="-7.6,-4.5 5.4,-6.1 6.8,5.7 -7.8,6.8" fill="#2f3136" transform="translate(276.9 328.8) rotate(38)"/><polygon points="-7.8,-7.6 9.2,-6.3 7.0,5.3 -7.4,7.0" fill="#c7c9cc" transform="translate(63.8 79.7) rotate(219)"/><polygon points="-3.4,-1.7 2.7,-2.7 3.0,2.0 -1.7,3.0" fill="#d9dadb" transform="translate(321.5 48.8) rotate(164)"/><polygon points="-3.6,-3.4 2.3,-2.9 3.2,2.3 -2.2,3.2" fill="#2f3136" transform="translate(9.5 412.1) rotate(26)"/><polygon points="-7.0,-5.4 5.8,-5.6 6.3,4.6 -5.0,6.3" fill="#2f3136" transform="translate(188.1 289.6) rotate(140)"/><polygon points="-3.7,-1.9 3.4,-2.9 3.3,3.6 -2.4,3.3" fill="#d9dadb" transform="translate(81.7 276.5) rotate(17)"/><polygon points="-7.1,-4.2 7.1,-5.6 6.4,5.7 -5.9,6.4" fill="#c7c9cc" transform="translate(414.2 142.3) rotate(27)"/><polygon points="-7.4,-5.6 7.6,-5.9 6.6,4.8 -4.2,6.6" fill="#9ea1a6" transform="translate(202.5 354.4) rotate(237)"/><polygon points="-4.9,-2.6 4.3,-3.9 4.4,2.4 -4.7,4.4" fill="#2f3136" transform="translate(256.6 139.7) rotate(18)"/><polygon points="-7.3,-4.7 6.5,-5.8 6.6,4.1 -3.9,6.6" fill="#c7c9cc" transform="translate(70.8 372.8) rotate(31)"/><polygon points="-5.7,-4.9 4.3,-4.6 5.1,2.9 -3.3,5.1" fill="#c7c9cc" transform="translate(289.1 123.3) rotate(164)"/><polygon points="-5.9,-5.5 6.0,-4.7 5.3,3.3 -5.1,5.3" fill="#d9dadb" transform="translate(229.8 82.1) rotate(259)"/><polygon points="-5.1,-5.1 5.0,-4.1 4.6,4.5 -4.1,4.6" fill="#d9dadb" transform="translate(83.7 352.7) rotate(207)"/><polygon points="-4.3,-3.8 4.8,-3.4 3.9,2.6 -3.2,3.9" fill="#1c2430" transform="translate(92.5 351.1) rotate(149)"/><polygon points="-6.0,-3.2 4.6,-4.8 5.4,2.4 -5.8,5.4" fill="#d9dadb" transform="translate(158.0 252.7) rotate(142)"/><polygon points="-6.5,-5.0 7.2,-5.2 5.9,4.4 -3.3,5.9" fill="#c7c9cc" transform="translate(329.9 115.7) rotate(102)"/><polygon points="-6.9,-5.4 7.3,-5.6 6.3,6.9 -7.3,6.3" fill="#2f3136" transform="translate(258.9 56.5) rotate(289)"/><polygon points="-5.4,-3.4 3.6,-4.3 4.9,5.0 -3.4,4.9" fill="#4a6a8f" transform="translate(22.5 152.9) rotate(162)"/><polygon points="-5.4,-3.2 4.2,-4.3 4.8,2.4 -3.2,4.8" fill="#9ea1a6" transform="translate(250.4 49.3) rotate(199)"/><polygon points="-5.4,-3.9 4.0,-4.3 4.9,2.6 -4.9,4.9" fill="#9ea1a6" transform="translate(306.2 127.7) rotate(252)"/><polygon points="-6.4,-3.9 5.3,-5.1 5.7,4.5 -5.0,5.7" fill="#4a6a8f" transform="translate(377.7 386.7) rotate(19)"/><polygon points="-5.4,-4.7 4.8,-4.3 4.9,2.9 -3.4,4.9" fill="#4a6a8f" transform="translate(137.5 367.6) rotate(315)"/><polygon points="-6.6,-5.8 4.4,-5.3 6.0,3.2 -4.2,6.0" fill="#d9dadb" transform="translate(19.7 192.5) rotate(200)"/><polygon points="-4.2,-3.2 4.6,-3.3 3.8,3.3 -2.7,3.8" fill="#4a6a8f" transform="translate(140.4 290.4) rotate(307)"/><polygon points="-6.0,-5.2 5.5,-4.8 5.4,5.8 -6.4,5.4" fill="#d9dadb" transform="translate(251.7 417.9) rotate(174)"/><polygon points="-4.9,-2.6 3.2,-3.9 4.4,2.7 -4.3,4.4" fill="#4a6a8f" transform="translate(18.3 132.4) rotate(33)"/><polygon points="-7.6,-5.7 8.2,-6.1 6.8,4.3 -4.8,6.8" fill="#2f3136" transform="translate(243.7 262.5) rotate(163)"/><polygon points="-5.7,-5.5 3.5,-4.5 5.1,3.5 -5.4,5.1" fill="#9ea1a6" transform="translate(184.8 297.3) rotate(136)"/><polygon points="-6.1,-3.3 4.0,-4.9 5.5,4.0 -4.5,5.5" fill="#2f3136" transform="translate(381.8 94.0) rotate(78)"/><polygon points="-4.5,-3.6 5.4,-3.6 4.1,2.1 -2.4,4.1" fill="#4a6a8f" transform="translate(315.1 125.4) rotate(346)"/><polygon points="-7.3,-4.5 8.5,-5.9 6.6,5.3 -3.8,6.6" fill="#c7c9cc" transform="translate(152.1 69.0) rotate(36)"/><polygon points="-7.3,-5.7 5.2,-5.8 6.6,4.5 -3.8,6.6" fill="#1c2430" transform="translate(73.6 3.1) rotate(4)"/><polygon points="-3.6,-2.8 3.3,-2.9 3.3,3.4 -3.8,3.3" fill="#d9dadb" transform="translate(386.8 318.6) rotate(318)"/><polygon points="-5.1,-3.1 6.0,-4.1 4.6,3.6 -4.3,4.6" fill="#4a6a8f" transform="translate(269.9 157.8) rotate(165)"/><polygon points="-6.5,-3.9 4.6,-5.2 5.9,5.3 -5.4,5.9" fill="#9ea1a6" transform="translate(295.5 243.9) rotate(107)"/><polygon points="-3.8,-3.3 3.3,-3.1 3.5,2.7 -2.6,3.5" fill="#d9dadb" transform="translate(218.8 270.3) rotate(91)"/><polygon points="-7.2,-6.2 6.9,-5.8 6.5,4.3 -4.3,6.5" fill="#d9dadb" transform="translate(67.8 133.5) rotate(202)"/><polygon points="-7.0,-6.4 6.8,-5.6 6.3,3.7 -6.1,6.3" fill="#c7c9cc" transform="translate(372.0 297.5) rotate(66)"/><polygon points="-3.5,-2.7 3.7,-2.8 3.1,2.6 -3.0,3.1" fill="#1c2430" transform="translate(138.9 398.1) rotate(275)"/><polygon points="-6.7,-5.9 7.7,-5.4 6.0,6.6 -5.7,6.0" fill="#1c2430" transform="translate(200.9 196.9) rotate(319)"/><polygon points="-6.2,-5.6 3.8,-5.0 5.6,4.7 -6.2,5.6" fill="#1c2430" transform="translate(331.6 258.5) rotate(107)"/><polygon points="-7.3,-6.8 8.1,-5.8 6.5,4.2 -3.7,6.5" fill="#c7c9cc" transform="translate(310.9 280.2) rotate(286)"/><polygon points="-8.0,-6.8 8.0,-6.4 7.2,6.2 -4.3,7.2" fill="#c7c9cc" transform="translate(46.8 387.4) rotate(96)"/><polygon points="-7.3,-5.9 8.7,-5.8 6.6,5.6 -6.8,6.6" fill="#c7c9cc" transform="translate(228.6 25.2) rotate(59)"/><polygon points="-4.9,-4.7 5.6,-3.9 4.4,2.5 -3.9,4.4" fill="#2f3136" transform="translate(42.4 110.1) rotate(245)"/><polygon points="-3.3,-3.3 3.7,-2.7 3.0,2.6 -3.4,3.0" fill="#9ea1a6" transform="translate(133.6 49.4) rotate(296)"/><polygon points="-5.8,-5.4 6.6,-4.6 5.2,2.8 -3.4,5.2" fill="#2f3136" transform="translate(209.1 258.3) rotate(176)"/><polygon points="-4.7,-3.9 3.7,-3.8 4.3,4.1 -3.8,4.3" fill="#c7c9cc" transform="translate(190.7 234.0) rotate(207)"/><polygon points="-5.5,-3.6 6.1,-4.4 5.0,3.0 -4.8,5.0" fill="#d9dadb" transform="translate(96.5 302.1) rotate(55)"/><polygon points="-5.0,-4.6 3.2,-4.0 4.5,4.7 -5.3,4.5" fill="#9ea1a6" transform="translate(18.7 172.3) rotate(166)"/><polygon points="-7.7,-5.4 6.6,-6.2 6.9,7.0 -4.6,6.9" fill="#2f3136" transform="translate(86.9 8.9) rotate(170)"/><polygon points="-8.1,-4.7 8.1,-6.5 7.3,6.0 -6.8,7.3" fill="#1c2430" transform="translate(161.4 24.6) rotate(205)"/><polygon points="-4.5,-4.4 3.4,-3.6 4.1,3.3 -4.2,4.1" fill="#1c2430" transform="translate(77.7 55.4) rotate(13)"/><polygon points="-3.5,-1.9 3.9,-2.8 3.1,2.9 -1.8,3.1" fill="#c7c9cc" transform="translate(66.3 143.4) rotate(93)"/><polygon points="-4.2,-2.6 3.7,-3.4 3.8,3.1 -4.4,3.8" fill="#c7c9cc" transform="translate(378.5 404.9) rotate(254)"/><polygon points="-6.5,-5.9 5.9,-5.2 5.8,3.3 -5.7,5.8" fill="#1c2430" transform="translate(33.9 194.1) rotate(248)"/><polygon points="-3.6,-3.1 3.3,-2.9 3.3,3.1 -3.5,3.3" fill="#c7c9cc" transform="translate(259.0 50.4) rotate(162)"/><polygon points="-6.9,-6.0 8.1,-5.5 6.2,6.7 -7.1,6.2" fill="#4a6a8f" transform="translate(346.1 251.1) rotate(294)"/><polygon points="-5.1,-4.5 4.0,-4.1 4.6,4.8 -4.3,4.6" fill="#c7c9cc" transform="translate(372.1 316.7) rotate(64)"/><polygon points="-7.1,-5.5 7.6,-5.7 6.4,4.0 -7.8,6.4" fill="#c7c9cc" transform="translate(253.2 375.4) rotate(312)"/><polygon points="-7.2,-4.3 7.8,-5.7 6.5,4.6 -5.8,6.5" fill="#2f3136" transform="translate(398.4 359.7) rotate(210)"/><polygon points="-7.5,-4.7 5.1,-6.0 6.7,6.0 -4.8,6.7" fill="#2f3136" transform="translate(290.4 190.5) rotate(325)"/><polygon points="-5.8,-3.6 6.9,-4.6 5.2,5.4 -3.4,5.2" fill="#9ea1a6" transform="translate(37.2 6.5) rotate(352)"/><polygon points="-7.2,-4.5 7.6,-5.7 6.4,6.0 -4.4,6.4" fill="#2f3136" transform="translate(271.6 47.7) rotate(351)"/><polygon points="-4.0,-2.1 3.2,-3.2 3.6,3.9 -3.1,3.6" fill="#2f3136" transform="translate(323.8 3.2) rotate(14)"/><polygon points="-5.9,-4.2 4.5,-4.7 5.3,4.4 -5.4,5.3" fill="#2f3136" transform="translate(406.3 307.5) rotate(233)"/><polygon points="-5.8,-5.8 3.5,-4.6 5.2,5.7 -3.1,5.2" fill="#9ea1a6" transform="translate(351.4 163.0) rotate(111)"/><polygon points="-6.2,-5.5 5.8,-5.0 5.6,3.3 -4.4,5.6" fill="#d9dadb" transform="translate(271.3 226.4) rotate(283)"/><polygon points="-4.3,-4.2 4.8,-3.5 3.9,1.8 -4.7,3.9" fill="#2f3136" transform="translate(265.4 155.0) rotate(62)"/><polygon points="-4.2,-2.2 3.1,-3.4 3.8,3.8 -2.4,3.8" fill="#9ea1a6" transform="translate(144.5 127.2) rotate(232)"/><polygon points="-3.9,-2.8 4.4,-3.1 3.5,3.1 -3.1,3.5" fill="#9ea1a6" transform="translate(83.0 21.6) rotate(328)"/><polygon points="-5.5,-3.4 5.5,-4.4 5.0,3.6 -3.1,5.0" fill="#d9dadb" transform="translate(43.1 326.9) rotate(353)"/><polygon points="-7.6,-5.5 9.0,-6.1 6.8,6.1 -5.7,6.8" fill="#1c2430" transform="translate(259.6 112.8) rotate(242)"/><polygon points="-4.7,-2.7 4.3,-3.7 4.2,2.9 -2.3,4.2" fill="#c7c9cc" transform="translate(146.9 261.5) rotate(65)"/><polygon points="-7.5,-6.3 5.2,-6.0 6.8,6.0 -6.5,6.8" fill="#d9dadb" transform="translate(378.0 116.9) rotate(112)"/><polygon points="-6.3,-5.3 3.9,-5.1 5.7,6.1 -4.9,5.7" fill="#2f3136" transform="translate(358.8 341.3) rotate(305)"/><polygon points="-6.9,-5.6 6.7,-5.5 6.2,5.6 -6.2,6.2" fill="#d9dadb" transform="translate(154.7 29.5) rotate(280)"/><polygon points="-7.7,-4.8 8.6,-6.2 6.9,4.7 -8.3,6.9" fill="#4a6a8f" transform="translate(401.3 39.3) rotate(325)"/><polygon points="-7.2,-6.1 5.1,-5.8 6.5,5.3 -7.3,6.5" fill="#4a6a8f" transform="translate(41.1 197.7) rotate(148)"/><polygon points="-4.0,-3.5 4.7,-3.2 3.6,3.9 -3.9,3.6" fill="#d9dadb" transform="translate(95.9 91.5) rotate(286)"/><polygon points="-5.2,-2.7 4.1,-4.1 4.6,3.0 -5.6,4.6" fill="#9ea1a6" transform="translate(171.0 148.9) rotate(325)"/><polygon points="-7.6,-4.2 5.2,-6.1 6.9,5.0 -5.3,6.9" fill="#2f3136" transform="translate(216.6 104.1) rotate(230)"/><polygon points="-8.1,-4.8 6.7,-6.5 7.3,5.0 -4.4,7.3" fill="#9ea1a6" transform="translate(207.9 158.6) rotate(103)"/><polygon points="-7.5,-5.0 4.7,-6.0 6.7,5.3 -7.8,6.7" fill="#2f3136" transform="translate(119.9 28.5) rotate(315)"/><polygon points="-7.2,-6.9 7.0,-5.8 6.5,2.9 -5.3,6.5" fill="#c7c9cc" transform="translate(394.2 253.1) rotate(199)"/><polygon points="-5.7,-4.2 6.4,-4.6 5.1,5.4 -3.6,5.1" fill="#9ea1a6" transform="translate(154.5 11.9) rotate(75)"/><polygon points="-5.0,-2.7 3.0,-4.0 4.5,4.2 -5.2,4.5" fill="#2f3136" transform="translate(250.7 190.7) rotate(86)"/><polygon points="-5.8,-4.1 5.3,-4.6 5.2,5.5 -3.6,5.2" fill="#2f3136" transform="translate(256.6 171.6) rotate(305)"/><polygon points="-7.5,-5.2 6.6,-6.0 6.7,5.7 -4.0,6.7" fill="#1c2430" transform="translate(208.3 195.4) rotate(282)"/><polygon points="-6.1,-5.1 4.2,-4.8 5.4,4.3 -3.7,5.4" fill="#d9dadb" transform="translate(282.8 285.2) rotate(135)"/><polygon points="-6.0,-3.0 5.8,-4.8 5.4,5.8 -4.9,5.4" fill="#d9dadb" transform="translate(43.5 234.3) rotate(166)"/><polygon points="-5.2,-3.0 5.3,-4.2 4.7,2.8 -5.0,4.7" fill="#4a6a8f" transform="translate(146.2 186.6) rotate(210)"/><polygon points="-3.6,-3.5 3.6,-2.9 3.2,2.1 -3.5,3.2" fill="#d9dadb" transform="translate(34.7 394.8) rotate(237)"/><polygon points="-4.1,-3.8 3.6,-3.2 3.6,2.0 -2.3,3.6" fill="#d9dadb" transform="translate(136.7 5.3) rotate(133)"/><polygon points="-5.9,-5.9 5.5,-4.7 5.3,3.5 -3.9,5.3" fill="#c7c9cc" transform="translate(297.3 185.9) rotate(314)"/><polygon points="-3.5,-2.3 3.8,-2.8 3.2,2.3 -2.0,3.2" fill="#d9dadb" transform="translate(183.2 347.0) rotate(276)"/><polygon points="-4.2,-2.6 3.8,-3.4 3.8,1.7 -3.5,3.8" fill="#d9dadb" transform="translate(292.4 17.5) rotate(130)"/><polygon points="-6.2,-3.9 4.5,-5.0 5.6,4.2 -3.4,5.6" fill="#1c2430" transform="translate(0.4 28.2) rotate(200)"/><polygon points="-4.2,-3.4 3.6,-3.3 3.8,3.4 -2.7,3.8" fill="#c7c9cc" transform="translate(344.5 313.3) rotate(345)"/><polygon points="-7.8,-5.8 5.7,-6.2 7.0,4.5 -6.2,7.0" fill="#4a6a8f" transform="translate(104.7 287.0) rotate(78)"/><polygon points="-6.3,-5.7 4.3,-5.1 5.7,4.7 -6.9,5.7" fill="#c7c9cc" transform="translate(159.0 330.2) rotate(345)"/><polygon points="-7.2,-7.1 8.1,-5.7 6.4,6.0 -6.2,6.4" fill="#1c2430" transform="translate(289.2 177.7) rotate(70)"/><polygon points="-3.9,-3.1 4.2,-3.1 3.5,2.2 -2.2,3.5" fill="#9ea1a6" transform="translate(410.9 180.2) rotate(250)"/><polygon points="-3.4,-3.0 2.8,-2.8 3.1,2.2 -3.8,3.1" fill="#c7c9cc" transform="translate(38.6 121.8) rotate(109)"/><polygon points="-4.7,-2.5 4.6,-3.7 4.2,4.5 -3.2,4.2" fill="#2f3136" transform="translate(75.9 240.6) rotate(5)"/><polygon points="-3.7,-2.7 4.2,-2.9 3.3,1.7 -3.9,3.3" fill="#2f3136" transform="translate(111.7 290.1) rotate(148)"/><polygon points="-6.9,-5.1 5.1,-5.5 6.2,4.3 -6.6,6.2" fill="#1c2430" transform="translate(404.5 365.5) rotate(320)"/><polygon points="-7.1,-5.7 7.7,-5.7 6.4,4.7 -5.7,6.4" fill="#1c2430" transform="translate(107.1 211.7) rotate(89)"/><polygon points="-5.1,-4.0 4.2,-4.1 4.6,3.4 -3.7,4.6" fill="#c7c9cc" transform="translate(286.3 121.3) rotate(171)"/><polygon points="-7.5,-6.1 6.0,-6.0 6.7,7.0 -7.8,6.7" fill="#2f3136" transform="translate(402.5 393.5) rotate(276)"/><polygon points="-3.4,-2.8 2.9,-2.7 3.0,2.5 -2.2,3.0" fill="#4a6a8f" transform="translate(371.3 25.9) rotate(177)"/><polygon points="-7.6,-4.8 8.1,-6.1 6.9,3.3 -6.4,6.9" fill="#4a6a8f" transform="translate(245.1 156.5) rotate(114)"/><polygon points="-6.9,-3.7 5.5,-5.5 6.2,5.8 -6.1,6.2" fill="#4a6a8f" transform="translate(401.3 300.5) rotate(209)"/><polygon points="-4.5,-2.7 3.6,-3.6 4.1,1.9 -4.8,4.1" fill="#4a6a8f" transform="translate(317.5 28.2) rotate(23)"/><polygon points="-4.4,-3.5 4.7,-3.5 4.0,1.9 -3.3,4.0" fill="#c7c9cc" transform="translate(314.3 260.7) rotate(270)"/><polygon points="-8.1,-7.0 5.9,-6.5 7.3,7.2 -6.5,7.3" fill="#d9dadb" transform="translate(319.8 228.0) rotate(57)"/><polygon points="-4.5,-2.8 5.0,-3.6 4.0,4.1 -3.5,4.0" fill="#d9dadb" transform="translate(52.5 27.3) rotate(249)"/><polygon points="-7.5,-6.5 5.5,-6.0 6.8,5.5 -8.0,6.8" fill="#4a6a8f" transform="translate(48.2 178.5) rotate(108)"/><polygon points="-4.9,-3.5 4.9,-3.9 4.4,3.6 -3.0,4.4" fill="#c7c9cc" transform="translate(119.0 234.9) rotate(88)"/><polygon points="-7.3,-5.9 4.8,-5.8 6.6,5.9 -6.3,6.6" fill="#1c2430" transform="translate(320.6 154.9) rotate(300)"/><polygon points="-5.3,-5.2 4.2,-4.2 4.8,4.2 -4.1,4.8" fill="#1c2430" transform="translate(374.6 304.5) rotate(110)"/><polygon points="-7.6,-7.3 8.8,-6.1 6.8,6.1 -5.5,6.8" fill="#d9dadb" transform="translate(220.3 53.8) rotate(320)"/><polygon points="-4.2,-2.3 4.0,-3.3 3.8,3.4 -2.9,3.8" fill="#4a6a8f" transform="translate(10.4 9.1) rotate(51)"/><polygon points="-7.8,-7.7 5.8,-6.2 7.0,7.2 -7.2,7.0" fill="#2f3136" transform="translate(75.8 359.4) rotate(94)"/><polygon points="-6.2,-4.6 6.9,-5.0 5.6,4.6 -5.4,5.6" fill="#1c2430" transform="translate(288.2 226.2) rotate(234)"/><polygon points="-7.6,-5.1 8.5,-6.1 6.9,3.1 -5.9,6.9" fill="#2f3136" transform="translate(322.1 380.7) rotate(194)"/><polygon points="-7.1,-4.5 5.9,-5.7 6.4,6.5 -3.7,6.4" fill="#2f3136" transform="translate(393.0 185.0) rotate(96)"/><polygon points="-6.5,-6.0 5.3,-5.2 5.8,3.0 -3.9,5.8" fill="#2f3136" transform="translate(155.7 348.9) rotate(51)"/><polygon points="-3.6,-2.8 4.0,-2.9 3.3,2.2 -3.7,3.3" fill="#2f3136" transform="translate(135.8 83.8) rotate(217)"/><polygon points="-4.5,-3.9 5.0,-3.6 4.0,4.3 -3.1,4.0" fill="#9ea1a6" transform="translate(397.3 190.7) rotate(165)"/><polygon points="-6.7,-4.9 6.5,-5.3 6.0,5.1 -7.0,6.0" fill="#4a6a8f" transform="translate(31.6 342.3) rotate(284)"/><polygon points="-3.7,-2.8 4.2,-2.9 3.3,1.9 -3.7,3.3" fill="#1c2430" transform="translate(267.4 412.9) rotate(212)"/><polygon points="-7.1,-4.4 7.2,-5.7 6.4,4.7 -4.6,6.4" fill="#1c2430" transform="translate(131.2 247.9) rotate(313)"/><polygon points="-6.9,-5.9 4.7,-5.5 6.2,3.4 -4.2,6.2" fill="#c7c9cc" transform="translate(258.7 237.9) rotate(263)"/><polygon points="-6.9,-4.0 4.9,-5.5 6.2,4.1 -7.0,6.2" fill="#4a6a8f" transform="translate(33.8 27.0) rotate(224)"/><polygon points="-4.1,-3.1 3.5,-3.2 3.7,2.7 -3.8,3.7" fill="#4a6a8f" transform="translate(372.3 278.2) rotate(354)"/><polygon points="-4.0,-2.7 4.7,-3.2 3.6,2.9 -3.0,3.6" fill="#d9dadb" transform="translate(85.0 57.8) rotate(225)"/><polygon points="-3.4,-1.9 3.1,-2.7 3.1,2.8 -1.7,3.1" fill="#2f3136" transform="translate(246.1 240.8) rotate(17)"/><polygon points="-3.4,-2.7 3.2,-2.7 3.0,2.9 -2.4,3.0" fill="#1c2430" transform="translate(199.9 276.8) rotate(314)"/><polygon points="-4.3,-3.8 4.3,-3.5 3.9,3.4 -4.7,3.9" fill="#c7c9cc" transform="translate(200.4 241.9) rotate(309)"/><polygon points="-5.8,-2.9 5.1,-4.6 5.2,4.5 -4.6,5.2" fill="#c7c9cc" transform="translate(256.5 219.0) rotate(28)"/><polygon points="-3.3,-2.4 2.0,-2.7 3.0,2.2 -2.8,3.0" fill="#c7c9cc" transform="translate(96.9 351.3) rotate(59)"/><polygon points="-7.1,-6.3 5.8,-5.7 6.4,5.2 -6.8,6.4" fill="#4a6a8f" transform="translate(33.7 413.5) rotate(315)"/><polygon points="-6.1,-4.7 4.7,-4.9 5.5,5.4 -3.8,5.5" fill="#4a6a8f" transform="translate(83.2 326.5) rotate(278)"/><polygon points="-5.8,-5.0 6.7,-4.7 5.2,3.2 -6.1,5.2" fill="#4a6a8f" transform="translate(345.3 128.6) rotate(235)"/><polygon points="-3.5,-3.0 2.6,-2.8 3.1,2.3 -1.8,3.1" fill="#9ea1a6" transform="translate(160.5 136.4) rotate(253)"/><polygon points="-6.2,-5.9 7.2,-5.0 5.6,4.7 -6.6,5.6" fill="#9ea1a6" transform="translate(8.7 58.0) rotate(251)"/><polygon points="-7.5,-5.0 8.5,-6.0 6.8,3.6 -4.6,6.8" fill="#2f3136" transform="translate(249.3 245.8) rotate(173)"/><polygon points="-5.9,-3.4 5.5,-4.7 5.3,4.3 -5.0,5.3" fill="#c7c9cc" transform="translate(42.0 138.3) rotate(270)"/><polygon points="-7.8,-6.2 7.5,-6.2 7.0,7.5 -6.2,7.0" fill="#2f3136" transform="translate(56.7 225.4) rotate(93)"/><polygon points="-7.7,-7.4 6.2,-6.2 7.0,5.6 -4.5,7.0" fill="#9ea1a6" transform="translate(52.8 48.1) rotate(53)"/><polygon points="-5.7,-2.9 5.1,-4.6 5.2,3.6 -5.4,5.2" fill="#1c2430" transform="translate(33.3 135.0) rotate(326)"/><polygon points="-5.5,-3.0 4.6,-4.4 4.9,4.5 -5.1,4.9" fill="#9ea1a6" transform="translate(41.8 387.6) rotate(103)"/><polygon points="-6.9,-5.1 6.9,-5.5 6.2,5.5 -5.8,6.2" fill="#d9dadb" transform="translate(58.3 117.7) rotate(308)"/><polygon points="-7.6,-6.5 5.7,-6.1 6.8,4.1 -7.4,6.8" fill="#d9dadb" transform="translate(297.3 244.9) rotate(229)"/><polygon points="-3.8,-3.5 2.6,-3.0 3.4,1.6 -4.1,3.4" fill="#2f3136" transform="translate(234.1 6.2) rotate(234)"/><polygon points="-4.5,-3.9 3.7,-3.6 4.0,3.3 -4.3,4.0" fill="#c7c9cc" transform="translate(10.5 123.6) rotate(166)"/><polygon points="-3.8,-3.6 3.4,-3.1 3.4,3.1 -3.3,3.4" fill="#c7c9cc" transform="translate(87.8 34.1) rotate(82)"/><polygon points="-4.6,-4.3 4.6,-3.7 4.1,3.8 -2.6,4.1" fill="#c7c9cc" transform="translate(1.6 296.8) rotate(173)"/><polygon points="-3.7,-3.5 2.2,-2.9 3.3,3.6 -2.5,3.3" fill="#9ea1a6" transform="translate(201.5 190.6) rotate(44)"/><polygon points="-5.2,-4.4 3.6,-4.2 4.7,3.9 -4.9,4.7" fill="#2f3136" transform="translate(176.5 272.8) rotate(165)"/><polygon points="-5.8,-4.5 3.7,-4.7 5.3,2.9 -6.3,5.3" fill="#2f3136" transform="translate(140.1 97.2) rotate(186)"/><polygon points="-5.7,-3.3 4.8,-4.5 5.1,5.3 -3.7,5.1" fill="#c7c9cc" transform="translate(331.2 297.8) rotate(152)"/><polygon points="-6.0,-5.1 3.8,-4.8 5.4,3.2 -4.4,5.4" fill="#4a6a8f" transform="translate(237.9 98.8) rotate(171)"/><polygon points="-5.3,-3.8 6.3,-4.2 4.8,3.8 -4.7,4.8" fill="#4a6a8f" transform="translate(308.2 369.8) rotate(17)"/><polygon points="-7.5,-4.0 6.4,-6.0 6.7,6.8 -7.8,6.7" fill="#1c2430" transform="translate(168.6 313.1) rotate(106)"/><polygon points="-5.0,-4.3 4.8,-4.0 4.5,3.0 -4.8,4.5" fill="#1c2430" transform="translate(389.3 60.0) rotate(190)"/><polygon points="-5.3,-2.7 4.9,-4.2 4.8,2.7 -3.0,4.8" fill="#1c2430" transform="translate(264.2 291.5) rotate(332)"/><polygon points="-3.7,-2.7 2.9,-2.9 3.3,2.7 -3.5,3.3" fill="#1c2430" transform="translate(20.3 378.0) rotate(92)"/><polygon points="-7.5,-5.1 5.3,-6.0 6.8,3.4 -7.2,6.8" fill="#d9dadb" transform="translate(99.0 310.2) rotate(14)"/><polygon points="-3.4,-2.3 2.1,-2.7 3.1,2.5 -3.4,3.1" fill="#1c2430" transform="translate(369.1 25.2) rotate(259)"/><polygon points="-7.8,-7.4 5.5,-6.2 7.0,4.4 -6.0,7.0" fill="#2f3136" transform="translate(86.2 361.3) rotate(68)"/><polygon points="-7.8,-4.4 4.9,-6.3 7.0,4.7 -4.9,7.0" fill="#9ea1a6" transform="translate(259.1 398.7) rotate(215)"/><polygon points="-6.5,-4.2 4.4,-5.2 5.8,2.7 -4.6,5.8" fill="#9ea1a6" transform="translate(316.8 418.3) rotate(172)"/><polygon points="-8.0,-4.6 5.2,-6.4 7.2,7.7 -7.6,7.2" fill="#4a6a8f" transform="translate(178.8 226.2) rotate(197)"/><polygon points="-5.8,-5.4 5.9,-4.6 5.2,3.7 -5.7,5.2" fill="#c7c9cc" transform="translate(400.6 348.2) rotate(23)"/><polygon points="-5.6,-3.9 3.9,-4.5 5.0,4.7 -4.9,5.0" fill="#d9dadb" transform="translate(40.0 192.4) rotate(198)"/><polygon points="-4.8,-4.3 3.9,-3.8 4.3,3.2 -5.0,4.3" fill="#1c2430" transform="translate(142.5 311.7) rotate(150)"/><polygon points="-5.6,-4.2 5.7,-4.5 5.1,2.4 -5.2,5.1" fill="#1c2430" transform="translate(55.3 113.3) rotate(14)"/><polygon points="-6.2,-3.9 6.0,-4.9 5.6,5.5 -5.7,5.6" fill="#2f3136" transform="translate(7.3 78.7) rotate(151)"/><polygon points="-6.5,-4.4 6.1,-5.2 5.8,6.4 -4.9,5.8" fill="#1c2430" transform="translate(256.0 119.2) rotate(83)"/><polygon points="-3.9,-3.0 4.0,-3.1 3.5,3.1 -2.5,3.5" fill="#d9dadb" transform="translate(311.9 371.3) rotate(339)"/><polygon points="-5.9,-4.7 6.3,-4.7 5.3,4.7 -5.7,5.3" fill="#9ea1a6" transform="translate(128.0 66.2) rotate(249)"/><polygon points="-4.7,-3.8 2.9,-3.8 4.2,4.2 -4.2,4.2" fill="#d9dadb" transform="translate(337.7 162.0) rotate(35)"/><polygon points="-8.0,-4.1 8.1,-6.4 7.2,4.8 -7.4,7.2" fill="#1c2430" transform="translate(22.7 172.0) rotate(165)"/><polygon points="-3.9,-2.9 2.4,-3.1 3.5,2.8 -2.5,3.5" fill="#2f3136" transform="translate(44.5 99.1) rotate(61)"/><polygon points="-4.3,-2.4 4.4,-3.4 3.9,3.1 -3.8,3.9" fill="#9ea1a6" transform="translate(199.8 56.3) rotate(338)"/><polygon points="-6.8,-4.0 5.6,-5.4 6.1,6.3 -3.5,6.1" fill="#9ea1a6" transform="translate(373.7 83.6) rotate(187)"/><polygon points="-4.6,-3.5 5.3,-3.7 4.1,3.4 -3.5,4.1" fill="#4a6a8f" transform="translate(107.2 179.6) rotate(254)"/><polygon points="-7.9,-7.7 5.3,-6.3 7.1,5.2 -6.7,7.1" fill="#9ea1a6" transform="translate(387.7 209.7) rotate(322)"/><polygon points="-3.9,-3.1 4.6,-3.1 3.5,1.9 -2.2,3.5" fill="#c7c9cc" transform="translate(277.0 269.9) rotate(236)"/><polygon points="-3.5,-2.6 4.1,-2.8 3.2,2.8 -2.2,3.2" fill="#c7c9cc" transform="translate(418.5 278.2) rotate(356)"/><polygon points="-6.0,-4.2 4.7,-4.8 5.4,4.1 -3.6,5.4" fill="#1c2430" transform="translate(376.0 162.5) rotate(210)"/><polygon points="-3.4,-3.0 2.4,-2.7 3.0,1.7 -2.4,3.0" fill="#1c2430" transform="translate(9.3 1.8) rotate(284)"/><polygon points="-5.0,-3.7 3.9,-4.0 4.5,5.0 -4.7,4.5" fill="#d9dadb" transform="translate(383.3 208.1) rotate(202)"/><polygon points="-5.9,-5.6 6.4,-4.7 5.3,3.6 -3.4,5.3" fill="#c7c9cc" transform="translate(105.0 53.3) rotate(344)"/><polygon points="-4.5,-4.5 4.7,-3.6 4.1,2.4 -2.3,4.1" fill="#c7c9cc" transform="translate(140.5 350.4) rotate(304)"/><polygon points="-6.8,-5.5 4.6,-5.5 6.2,6.3 -7.0,6.2" fill="#1c2430" transform="translate(377.1 205.2) rotate(24)"/><polygon points="-7.9,-4.9 6.9,-6.4 7.1,4.7 -5.1,7.1" fill="#d9dadb" transform="translate(401.7 22.9) rotate(208)"/><polygon points="-4.3,-2.8 3.2,-3.5 3.9,2.4 -4.7,3.9" fill="#1c2430" transform="translate(69.9 136.3) rotate(283)"/><polygon points="-8.0,-5.1 7.7,-6.4 7.2,5.4 -6.8,7.2" fill="#9ea1a6" transform="translate(304.3 52.5) rotate(38)"/><polygon points="-5.1,-4.0 5.5,-4.1 4.6,4.3 -2.8,4.6" fill="#4a6a8f" transform="translate(406.7 176.5) rotate(260)"/><polygon points="-8.0,-6.1 7.3,-6.4 7.2,4.9 -6.8,7.2" fill="#4a6a8f" transform="translate(368.7 395.1) rotate(167)"/><polygon points="-3.4,-2.7 2.7,-2.7 3.0,2.2 -3.7,3.0" fill="#4a6a8f" transform="translate(32.1 243.6) rotate(274)"/><polygon points="-8.0,-7.3 9.3,-6.4 7.2,6.1 -4.6,7.2" fill="#9ea1a6" transform="translate(21.8 139.2) rotate(268)"/><polygon points="-5.2,-2.6 4.4,-4.2 4.7,4.2 -3.2,4.7" fill="#4a6a8f" transform="translate(247.6 267.0) rotate(267)"/><polygon points="-5.9,-5.0 3.9,-4.7 5.3,3.5 -5.3,5.3" fill="#1c2430" transform="translate(73.8 305.0) rotate(112)"/><polygon points="-5.2,-3.3 5.2,-4.2 4.7,3.6 -3.2,4.7" fill="#2f3136" transform="translate(392.5 237.2) rotate(130)"/><polygon points="-3.8,-3.1 2.7,-3.1 3.4,2.4 -2.7,3.4" fill="#9ea1a6" transform="translate(1.3 138.9) rotate(234)"/><polygon points="-6.2,-3.4 6.3,-5.0 5.6,2.7 -4.9,5.6" fill="#c7c9cc" transform="translate(378.1 128.9) rotate(343)"/><polygon points="-6.2,-3.5 6.3,-5.0 5.6,5.5 -3.2,5.6" fill="#d9dadb" transform="translate(279.9 130.0) rotate(275)"/><polygon points="-7.3,-6.4 7.7,-5.9 6.6,3.2 -7.0,6.6" fill="#4a6a8f" transform="translate(302.7 97.6) rotate(22)"/><polygon points="-6.3,-5.7 3.9,-5.0 5.7,4.4 -5.0,5.7" fill="#2f3136" transform="translate(332.0 375.8) rotate(298)"/><polygon points="-6.1,-5.3 4.3,-4.9 5.5,5.3 -5.3,5.5" fill="#4a6a8f" transform="translate(348.4 211.3) rotate(127)"/></pattern>
</defs>
<rect width="2400" height="600" fill="url(#wall)"/>
<rect x="0" y="586" width="2400" height="14" fill="#1d1e21" opacity="0.9"/>
<g clip-path="url(#floorClip)">
  <rect x="0" y="600" width="2400" height="900" fill="#6e6f73"/>
  <rect x="0" y="0" width="2400" height="1500" fill="url(#flakes)"/>
  <rect x="0" y="600" width="2400" height="900" fill="url(#depth)"/>
  <rect x="0" y="600" width="2400" height="900" fill="url(#gloss)"/>
</g>
<rect width="2400" height="1500" fill="url(#vignette)"/>
</svg>